<svg width="75" height="75" viewBox="0 0 75 75" fill="none" xmlns="http://www.w3.org/2000/svg">
<path d="M37.5 72C9.67521 72 3 65.3248 3 37.5C3 9.67521 9.67521 3 37.5 3C65.3248 3 72 9.67521 72 37.5C72 65.3248 65.3248 72 37.5 72ZM27.7333 20.0743L16.9124 44.6671C16.4205 45.8617 15.999 47.4072 15.999 48.7424C15.999 54.8554 20.285 59.1417 26.398 59.1417C28.4014 59.1417 30.065 58.6153 31.7563 58.0803L31.7576 58.0795C33.5066 57.5262 35.2855 56.9634 37.5 56.9634C39.7403 56.9634 41.4767 57.5213 43.192 58.0722L43.1925 58.0725C44.8663 58.6102 46.5199 59.1417 48.6017 59.1417C54.7147 59.1417 59.001 54.8554 59.001 48.7424C59.001 47.4072 58.5792 45.8617 58.0876 44.6671L47.267 20.0743C45.4396 15.9289 41.9268 13.6802 37.5 13.6802C33.0732 13.6802 29.5601 15.9286 27.7333 20.0743ZM26.8196 48.5316L37.5 24.3606L48.0398 48.5316C45.0183 47.0562 41.2241 46.3536 37.5 46.3536C33.6355 46.3536 29.9814 47.0562 26.8196 48.5316Z" fill="#5A46FF"/>
</svg>
