<svg width="74" height="74" viewBox="0 0 74 74" fill="none" xmlns="http://www.w3.org/2000/svg">
<path d="M38 40.1236C38.118 38.0855 39.144 36.2862 40.6964 35.0145C42.2175 33.7644 44.2596 33 46.5018 33C48.7322 33 50.7738 33.7639 52.2929 35.0145C53.8478 36.2862 54.8674 38.0855 54.9893 40.1236C55.1073 42.2135 54.2406 44.1641 52.7255 45.6088C51.173 47.0742 48.976 48 46.5018 48C44.0256 48 41.8188 47.0799 40.2761 45.6088C38.7551 44.1646 37.8904 42.2246 38.0118 40.1332L38 40.1236Z" fill="#235785"/>
<path d="M25.0094 44.261C25.023 45.0645 25.2826 46.6278 25.6682 47.8446C26.4829 50.4273 27.8658 52.8169 29.7805 54.9107C31.7481 57.0718 34.1758 58.8094 36.9735 60.046C39.9151 61.3384 43.1081 62 46.4212 62C49.7344 61.9956 52.9274 61.3224 55.8685 60.0146C58.6663 58.7649 61.0949 57.0292 63.0615 54.8565C64.9864 52.7394 66.3649 50.3518 67.1743 47.7672C67.5796 46.4834 67.8388 45.158 67.9469 43.8162C68.0476 42.5142 68.005 41.2001 67.8195 39.886C67.4569 37.3539 66.5627 34.9269 65.1956 32.7643C63.9488 30.7557 62.3301 29.0084 60.4052 27.5307L60.411 27.5288L41.0578 12.7635C41.0403 12.75 41.0248 12.7364 41.0074 12.7248C39.7388 11.7558 37.5954 11.7597 36.2072 12.7287C34.7958 13.7117 34.633 15.3351 35.8895 16.3568L35.8837 16.3607L43.964 22.8871L19.3631 22.9118H19.3301C17.2972 22.9137 15.3394 24.2375 14.9562 25.9189C14.559 27.6231 15.9419 29.0456 18.062 29.0456L18.0582 29.0534L30.5241 29.0302L8.21858 45.9657C8.19145 45.987 8.16045 46.0083 8.13333 46.0296C6.03356 47.6239 5.35592 50.284 6.67826 51.9558C8.02386 53.6605 10.8759 53.6721 12.9979 51.9655L25.1354 42.0868C25.1354 42.0868 24.9571 43.4217 24.9726 44.215L25.0094 44.261ZM56.2807 48.7231C53.7775 51.2535 50.2667 52.6968 46.4832 52.6968C42.6901 52.7026 39.1794 51.2845 36.6756 48.756C35.4521 47.5174 34.5555 46.107 33.998 44.5979C33.453 43.1129 33.2427 41.526 33.3824 39.9504C33.5149 38.4132 33.9737 36.9218 34.7279 35.5754C35.4579 34.2618 36.4669 33.0683 37.702 32.0581C40.1399 30.094 43.2336 29.0185 46.4692 29.0185C49.7189 29.0147 52.8131 30.0708 55.2509 32.0368C56.4861 33.0412 57.4912 34.2289 58.225 35.5425C58.9809 36.8887 59.4391 38.3812 59.5686 39.9194C59.7064 41.4943 59.4962 43.0802 58.953 44.565C58.3974 46.0857 57.4989 47.4961 56.273 48.7347L56.2807 48.7231Z" fill="#E87500"/>
</svg>
