<svg width="69" height="75" viewBox="0 0 69 75" fill="none" xmlns="http://www.w3.org/2000/svg">
<path fill-rule="evenodd" clip-rule="evenodd" d="M61.2009 5.19571C48.1478 9.12846 44.3981 10.3194 39.5665 12.067C32.1927 14.734 26.1707 17.6311 22.2019 20.4209C20.2444 21.7969 18.3524 23.4702 17.0871 24.9445C15.3094 27.0159 14.0487 29.4463 13.5562 31.7519C13.2994 32.9534 13.1454 34.4571 13.2001 35.2282C13.3563 37.4315 14.1442 39.5407 15.7034 41.9299C16.0352 42.4383 16.4065 42.9663 16.5283 43.1031L16.7499 43.3519L17.341 42.6807C18.3572 41.5267 22.5151 37.5152 24.0247 36.2325C28.0996 32.7698 32.0565 29.978 36.611 27.3521C44.0122 23.0851 52.559 19.6541 61.989 17.1648C64.4928 16.5037 64.518 16.4951 64.8615 16.1757C66.0095 15.1084 66.2707 12.469 65.7291 7.41197C65.6434 6.61139 65.531 5.51431 65.4794 4.97416C65.4027 4.17165 65.3633 3.99348 65.2636 4.00018C65.1965 4.00472 63.3682 4.54263 61.2009 5.19571ZM27.508 15.4742C21.3054 16.3866 15.7169 19.1289 11.3512 23.4026C6.67871 27.9766 3.81588 33.8795 3.11751 40.3799C2.96083 41.8382 2.96083 44.5637 3.11751 46.022C3.70144 51.457 5.80679 56.444 9.3624 60.8145C10.2345 61.8864 12.4812 64.0828 13.5974 64.9546C17.6856 68.1477 22.5595 70.2011 27.695 70.8942C28.4679 70.9985 29.154 71.015 31.6357 70.9893C34.957 70.9548 35.3298 70.9154 37.6495 70.3527C44.4762 68.6969 50.8175 64.4206 55.9236 58.0295C56.8184 56.9094 58.5534 54.3598 59.3047 53.061C62.0819 48.2591 63.92 42.9088 64.5843 37.6932C64.8499 35.6076 64.9679 32.1855 64.7743 32.1855C64.6323 32.1855 62.0149 32.9917 60.7969 33.4106C55.1363 35.3573 50.0081 37.7157 45.3199 40.5281C41.9901 42.5257 38.1778 45.2904 35.3894 47.7298C34.2138 48.7583 32.3156 50.5264 32.3156 50.593C32.3156 50.6262 32.6437 50.7114 33.0447 50.7824C33.4456 50.8533 34.3415 51.0454 35.0356 51.2093C41.1233 52.6463 44.4144 55.2287 43.9794 58.2268C43.8124 59.3778 43.3067 60.2585 42.1674 61.3827C38.0509 65.4446 29.5151 66.7547 22.7748 64.3592C18.1184 62.7043 13.8441 59.3036 11.0591 55.038C10.4439 54.0956 9.26459 51.7715 8.87052 50.7248C7.43004 46.8982 6.98908 42.5521 7.61494 38.348C8.4982 32.4143 11.4599 26.6075 15.5173 22.8542C17.455 21.0618 19.527 19.669 22.4921 18.1659C23.7469 17.5299 26.4455 16.3104 27.9602 15.6949C28.3172 15.5499 28.6098 15.4051 28.6104 15.3734C28.6109 15.3417 28.5848 15.3187 28.5523 15.3225C28.5197 15.3262 28.0498 15.3945 27.508 15.4742ZM65.0233 18.4744C64.915 18.5103 64.2056 18.7021 63.4471 18.9005C53.1668 21.5894 43.145 25.8164 34.9559 30.9174C29.381 34.39 24.7423 38.0349 20.0309 42.6451L17.8736 44.7559L18.2576 45.1412C19.1854 46.0724 20.6597 47.1609 21.9126 47.8396C23.4898 48.6941 25.7344 49.4225 28.5061 49.9792L29.386 50.156L30.9903 48.662C33.3453 46.4691 35.2789 44.8503 37.4779 43.2308C44.9224 37.7478 53.2728 33.7583 63.5925 30.754C64.5077 30.4875 64.9757 30.117 65.3406 29.3697C65.7617 28.5074 65.8967 27.7251 65.9446 25.8689C65.9883 24.1724 65.9493 23.4514 65.6389 20.2264C65.4494 18.2564 65.4736 18.3251 65.0233 18.4744Z" fill="#FC7424"/>
</svg>
