<svg width="65" height="75" viewBox="0 0 65 75" fill="none" xmlns="http://www.w3.org/2000/svg">
<g clip-path="url(#clip0_322_26409)">
<path d="M62.9878 37.7048C52.5182 37.9103 54.6991 44.5382 47.3207 46.2143C39.8252 47.917 38.642 27.9082 31.1485 27.9082C23.6539 27.9082 21.994 47.3446 12.6099 60.6878L12.342 61.0655L32.4613 72.6794L62.9878 55.0567V37.7048Z" fill="#36A2EB"/>
<path d="M62.9879 37.1006C59.4832 32.6026 57.106 27.4316 51.9913 27.4316C42.9406 27.4316 45.3223 42.1963 35.3195 42.1963C25.3156 42.1963 24.2638 26.3147 12.9315 41.2438C9.32031 46.0007 6.41381 51.3047 4.13062 56.3236L32.4614 72.6789L62.9879 55.0562V37.1006Z" fill="#FFCE56"/>
<path opacity="0.8" d="M1.93408 43.2165C5.36863 33.7052 6.85089 26.002 13.4078 26.002C23.4107 26.002 25.7917 54.1036 34.3668 51.2448C42.9406 48.3872 41.9876 33.1455 55.326 33.1455C57.8648 33.1455 60.4569 34.7007 62.9884 37.2165V55.0556L32.4619 72.6781L1.93408 55.0558V43.2165Z" fill="#FE6184"/>
<path d="M32.4376 74.8885L0.00512695 56.1671V18.7221L32.4376 0L64.87 18.7221V56.1664L32.4376 74.8885ZM3.81568 53.9671L32.4376 70.4899L61.0594 53.9671V20.922L32.4376 4.39915L3.81568 20.922V53.9671Z" fill="#E7E9ED"/>
</g>
<defs>
<clipPath id="clip0_322_26409">
<rect width="64.875" height="75" fill="white"/>
</clipPath>
</defs>
</svg>
