<svg width="75" height="75" viewBox="0 0 75 75" fill="none" xmlns="http://www.w3.org/2000/svg">
<g clip-path="url(#clip0_356_8414)">
<path d="M67 8H7V68H67V8Z" fill="#339B5C"/>
<g opacity="0.0633333">
<path d="M17.022 3.84693L12.011 -1.16406L-3.02199 13.8689L1.989 18.8799L17.022 3.84693Z" fill="#222222"/>
<path d="M17.022 13.8689L1.98901 -1.16406L-3.02198 3.84693L12.011 18.8799L17.022 13.8689Z" fill="#222222"/>
</g>
<g opacity="0.0633333">
<path d="M77.166 3.84693L72.155 -1.16406L57.1221 13.8689L62.133 18.8799L77.166 3.84693Z" fill="#222222"/>
<path d="M77.166 13.8689L62.1331 -1.16406L57.1221 3.84693L72.155 18.8799L77.166 13.8689Z" fill="#222222"/>
</g>
<g opacity="0.0633333">
<path d="M17.022 63.9915L12.011 58.9805L-3.02199 74.0134L1.989 79.0244L17.022 63.9915Z" fill="#222222"/>
<path d="M17.022 74.0134L1.98901 58.9805L-3.02198 63.9915L12.011 79.0244L17.022 74.0134Z" fill="#222222"/>
</g>
<g opacity="0.0633333">
<path d="M71.2934 58.1191H64.2068V79.379H71.2934V58.1191Z" fill="#222222"/>
<path d="M78.38 65.2051H57.1201V72.2917H78.38V65.2051Z" fill="#222222"/>
</g>
<g opacity="0.132667">
<path d="M27.046 8.85865L22.035 3.84766L7.00206 18.8806L12.013 23.8916L27.046 8.85865Z" fill="#222222"/>
<path d="M27.046 18.8806L12.0131 3.84766L7.00207 8.85865L22.035 23.8916L27.046 18.8806Z" fill="#222222"/>
</g>
<g opacity="0.132667">
<path d="M27.046 69.0032L22.035 63.9922L7.00206 79.0252L12.013 84.0362L27.046 69.0032Z" fill="#222222"/>
<path d="M27.046 79.0252L12.0131 63.9922L7.00207 69.0032L22.035 84.0362L27.046 79.0252Z" fill="#222222"/>
</g>
<g opacity="0.15">
<path d="M37.07 3.84693L32.059 -1.16406L17.026 13.8689L22.037 18.8799L37.07 3.84693Z" fill="#222222"/>
<path d="M37.07 13.8689L22.037 -1.16406L17.026 3.84693L32.059 18.8799L37.07 13.8689Z" fill="#222222"/>
</g>
<g opacity="0.15">
<path d="M37.07 63.9915L32.059 58.9805L17.026 74.0134L22.037 79.0244L37.07 63.9915Z" fill="#222222"/>
<path d="M37.07 74.0134L22.037 58.9805L17.026 63.9915L32.059 79.0244L37.07 74.0134Z" fill="#222222"/>
</g>
<g opacity="0.0893333">
<path d="M47.094 8.85865L42.083 3.84766L27.05 18.8806L32.061 23.8916L47.094 8.85865Z" fill="#DDDDDD"/>
<path d="M47.094 18.8806L32.061 3.84766L27.05 8.85865L42.083 23.8916L47.094 18.8806Z" fill="#DDDDDD"/>
</g>
<g opacity="0.0893333">
<path d="M47.094 69.0032L42.083 63.9922L27.05 79.0252L32.061 84.0362L47.094 69.0032Z" fill="#DDDDDD"/>
<path d="M47.094 79.0252L32.061 63.9922L27.05 69.0032L42.083 84.0362L47.094 79.0252Z" fill="#DDDDDD"/>
</g>
<g opacity="0.098">
<path d="M57.118 3.84693L52.1071 -1.16406L37.0741 13.8689L42.0851 18.8799L57.118 3.84693Z" fill="#222222"/>
<path d="M57.1181 13.8689L42.0851 -1.16406L37.0741 3.84693L52.1071 18.8799L57.1181 13.8689Z" fill="#222222"/>
</g>
<g opacity="0.098">
<path d="M57.118 63.9915L52.1071 58.9805L37.0741 74.0134L42.0851 79.0244L57.118 63.9915Z" fill="#222222"/>
<path d="M57.1181 74.0134L42.0851 58.9805L37.0741 63.9915L52.1071 79.0244L57.1181 74.0134Z" fill="#222222"/>
</g>
<g opacity="0.098">
<path d="M67.1421 8.85865L62.1311 3.84766L47.0981 18.8806L52.1091 23.8916L67.1421 8.85865Z" fill="#222222"/>
<path d="M67.1421 18.8806L52.1091 3.84766L47.0981 8.85865L62.1311 23.8916L67.1421 18.8806Z" fill="#222222"/>
</g>
<g opacity="0.098">
<path d="M67.1421 69.0032L62.1311 63.9922L47.0981 79.0252L52.1091 84.0362L67.1421 69.0032Z" fill="#222222"/>
<path d="M67.1421 79.0252L52.1091 63.9922L47.0981 69.0032L62.1311 84.0362L67.1421 79.0252Z" fill="#222222"/>
</g>
<g opacity="0.046">
<path d="M17.022 13.8704L12.011 8.85938L-3.02199 23.8924L1.989 28.9033L17.022 13.8704Z" fill="#222222"/>
<path d="M17.022 23.8924L1.98901 8.85938L-3.02198 13.8704L12.011 28.9033L17.022 23.8924Z" fill="#222222"/>
</g>
<g opacity="0.046">
<path d="M77.166 13.8704L72.155 8.85938L57.1221 23.8924L62.133 28.9033L77.166 13.8704Z" fill="#222222"/>
<path d="M77.166 23.8924L62.1331 8.85938L57.1221 13.8704L72.155 28.9033L77.166 23.8924Z" fill="#222222"/>
</g>
<g opacity="0.02">
<path d="M27.046 18.8821L22.035 13.8711L7.00206 28.9041L12.013 33.9151L27.046 18.8821Z" fill="#DDDDDD"/>
<path d="M27.046 28.9041L12.0131 13.8711L7.00207 18.8821L22.035 33.9151L27.046 28.9041Z" fill="#DDDDDD"/>
</g>
<g opacity="0.098">
<path d="M37.07 13.8704L32.059 8.85938L17.026 23.8924L22.037 28.9033L37.07 13.8704Z" fill="#222222"/>
<path d="M37.07 23.8924L22.037 8.85938L17.026 13.8704L32.059 28.9033L37.07 23.8924Z" fill="#222222"/>
</g>
<g opacity="0.098">
<path d="M47.094 18.8821L42.083 13.8711L27.05 28.9041L32.061 33.9151L47.094 18.8821Z" fill="#222222"/>
<path d="M47.094 28.9041L32.061 13.8711L27.05 18.8821L42.083 33.9151L47.094 28.9041Z" fill="#222222"/>
</g>
<g opacity="0.141333">
<path d="M57.118 13.8704L52.1071 8.85938L37.0741 23.8924L42.0851 28.9033L57.118 13.8704Z" fill="#DDDDDD"/>
<path d="M57.1181 23.8924L42.0851 8.85938L37.0741 13.8704L52.1071 28.9033L57.1181 23.8924Z" fill="#DDDDDD"/>
</g>
<g opacity="0.0286667">
<path d="M67.1421 18.8821L62.1311 13.8711L47.0981 28.9041L52.1091 33.9151L67.1421 18.8821Z" fill="#222222"/>
<path d="M67.1421 28.9041L52.1091 13.8711L47.0981 18.8821L62.1311 33.9151L67.1421 28.9041Z" fill="#222222"/>
</g>
<g opacity="0.0893333">
<path d="M17.022 23.8938L12.011 18.8828L-3.02199 33.9158L1.989 38.9268L17.022 23.8938Z" fill="#DDDDDD"/>
<path d="M17.022 33.9158L1.98901 18.8828L-3.02198 23.8938L12.011 38.9268L17.022 33.9158Z" fill="#DDDDDD"/>
</g>
<g opacity="0.0893333">
<path d="M77.166 23.8938L72.155 18.8828L57.1221 33.9158L62.133 38.9268L77.166 23.8938Z" fill="#DDDDDD"/>
<path d="M77.166 33.9158L62.1331 18.8828L57.1221 23.8938L72.155 38.9268L77.166 33.9158Z" fill="#DDDDDD"/>
</g>
<g opacity="0.02">
<path d="M27.046 28.9075L22.035 23.8965L7.00206 38.9295L12.013 43.9405L27.046 28.9075Z" fill="#DDDDDD"/>
<path d="M27.046 38.9295L12.0131 23.8965L7.00207 28.9075L22.035 43.9405L27.046 38.9295Z" fill="#DDDDDD"/>
</g>
<g opacity="0.098">
<path d="M37.07 23.8938L32.059 18.8828L17.026 33.9158L22.037 38.9268L37.07 23.8938Z" fill="#222222"/>
<path d="M37.07 33.9158L22.037 18.8828L17.026 23.8938L32.059 38.9268L37.07 33.9158Z" fill="#222222"/>
</g>
<g opacity="0.106667">
<path d="M47.094 28.9075L42.083 23.8965L27.05 38.9295L32.061 43.9405L47.094 28.9075Z" fill="#DDDDDD"/>
<path d="M47.094 38.9295L32.061 23.8965L27.05 28.9075L42.083 43.9405L47.094 38.9295Z" fill="#DDDDDD"/>
</g>
<g opacity="0.046">
<path d="M57.118 23.8938L52.1071 18.8828L37.0741 33.9158L42.0851 38.9268L57.118 23.8938Z" fill="#222222"/>
<path d="M57.1181 33.9158L42.0851 18.8828L37.0741 23.8938L52.1071 38.9268L57.1181 33.9158Z" fill="#222222"/>
</g>
<g opacity="0.0893333">
<path d="M67.1421 28.9075L62.1311 23.8965L47.0981 38.9295L52.1091 43.9405L67.1421 28.9075Z" fill="#DDDDDD"/>
<path d="M67.1421 38.9295L52.1091 23.8965L47.0981 28.9075L62.1311 43.9405L67.1421 38.9295Z" fill="#DDDDDD"/>
</g>
<g opacity="0.0806667">
<path d="M17.022 33.9192L12.011 28.9082L-3.02199 43.9412L1.989 48.9522L17.022 33.9192Z" fill="#222222"/>
<path d="M17.022 43.9412L1.98901 28.9082L-3.02198 33.9192L12.011 48.9522L17.022 43.9412Z" fill="#222222"/>
</g>
<g opacity="0.0806667">
<path d="M77.166 33.9192L72.155 28.9082L57.1221 43.9412L62.133 48.9522L77.166 33.9192Z" fill="#222222"/>
<path d="M77.166 43.9412L62.1331 28.9082L57.1221 33.9192L72.155 48.9522L77.166 43.9412Z" fill="#222222"/>
</g>
<g opacity="0.106667">
<path d="M27.046 38.9309L22.035 33.9199L7.00206 48.9529L12.013 53.9639L27.046 38.9309Z" fill="#DDDDDD"/>
<path d="M27.046 48.9529L12.0131 33.9199L7.00207 38.9309L22.035 53.9639L27.046 48.9529Z" fill="#DDDDDD"/>
</g>
<g opacity="0.046">
<path d="M37.07 33.9192L32.059 28.9082L17.026 43.9412L22.037 48.9522L37.07 33.9192Z" fill="#222222"/>
<path d="M37.07 43.9412L22.037 28.9082L17.026 33.9192L32.059 48.9522L37.07 43.9412Z" fill="#222222"/>
</g>
<g opacity="0.0286667">
<path d="M47.094 38.9309L42.083 33.9199L27.05 48.9529L32.061 53.9639L47.094 38.9309Z" fill="#222222"/>
<path d="M47.094 48.9529L32.061 33.9199L27.05 38.9309L42.083 53.9639L47.094 48.9529Z" fill="#222222"/>
</g>
<g opacity="0.0546667">
<path d="M57.118 33.9192L52.1071 28.9082L37.0741 43.9412L42.0851 48.9522L57.118 33.9192Z" fill="#DDDDDD"/>
<path d="M57.1181 43.9412L42.0851 28.9082L37.0741 33.9192L52.1071 48.9522L57.1181 43.9412Z" fill="#DDDDDD"/>
</g>
<g opacity="0.141333">
<path d="M67.1421 38.9309L62.1311 33.9199L47.0981 48.9529L52.1091 53.9639L67.1421 38.9309Z" fill="#DDDDDD"/>
<path d="M67.1421 48.9529L52.1091 33.9199L47.0981 38.9309L62.1311 53.9639L67.1421 48.9529Z" fill="#DDDDDD"/>
</g>
<g opacity="0.072">
<path d="M17.022 43.9426L12.011 38.9316L-3.02199 53.9646L1.989 58.9756L17.022 43.9426Z" fill="#DDDDDD"/>
<path d="M17.022 53.9646L1.98901 38.9316L-3.02198 43.9426L12.011 58.9756L17.022 53.9646Z" fill="#DDDDDD"/>
</g>
<g opacity="0.072">
<path d="M77.166 43.9426L72.155 38.9316L57.1221 53.9646L62.133 58.9756L77.166 43.9426Z" fill="#DDDDDD"/>
<path d="M77.166 53.9646L62.1331 38.9316L57.1221 43.9426L72.155 58.9756L77.166 53.9646Z" fill="#DDDDDD"/>
</g>
<g opacity="0.0546667">
<path d="M27.046 48.9544L22.035 43.9434L7.00206 58.9763L12.013 63.9873L27.046 48.9544Z" fill="#DDDDDD"/>
<path d="M27.046 58.9763L12.0131 43.9434L7.00207 48.9544L22.035 63.9873L27.046 58.9763Z" fill="#DDDDDD"/>
</g>
<g opacity="0.0286667">
<path d="M37.07 43.9426L32.059 38.9316L17.026 53.9646L22.037 58.9756L37.07 43.9426Z" fill="#222222"/>
<path d="M37.07 53.9646L22.037 38.9316L17.026 43.9426L32.059 58.9756L37.07 53.9646Z" fill="#222222"/>
</g>
<g opacity="0.0633333">
<path d="M47.094 48.9544L42.083 43.9434L27.05 58.9763L32.061 63.9873L47.094 48.9544Z" fill="#222222"/>
<path d="M47.094 58.9763L32.061 43.9434L27.05 48.9544L42.083 63.9873L47.094 58.9763Z" fill="#222222"/>
</g>
<g opacity="0.02">
<path d="M57.118 43.9426L52.1071 38.9316L37.0741 53.9646L42.0851 58.9756L57.118 43.9426Z" fill="#DDDDDD"/>
<path d="M57.1181 53.9646L42.0851 38.9316L37.0741 43.9426L52.1071 58.9756L57.1181 53.9646Z" fill="#DDDDDD"/>
</g>
<g opacity="0.106667">
<path d="M67.1421 48.9544L62.1311 43.9434L47.0981 58.9763L52.1091 63.9873L67.1421 48.9544Z" fill="#DDDDDD"/>
<path d="M67.1421 58.9763L52.1091 43.9434L47.0981 48.9544L62.1311 63.9873L67.1421 58.9763Z" fill="#DDDDDD"/>
</g>
<g opacity="0.0806667">
<path d="M17.022 53.9661L12.011 48.9551L-3.02199 63.9881L1.989 68.999L17.022 53.9661Z" fill="#222222"/>
<path d="M17.022 63.9881L1.98901 48.9551L-3.02198 53.9661L12.011 68.999L17.022 63.9881Z" fill="#222222"/>
</g>
<g opacity="0.0806667">
<path d="M77.166 53.9661L72.155 48.9551L57.1221 63.9881L62.133 68.999L77.166 53.9661Z" fill="#222222"/>
<path d="M77.166 63.9881L62.1331 48.9551L57.1221 53.9661L72.155 68.999L77.166 63.9881Z" fill="#222222"/>
</g>
<g opacity="0.0806667">
<path d="M17.022 -6.17651L12.011 -11.1875L-3.02199 3.84548L1.989 8.85647L17.022 -6.17651Z" fill="#222222"/>
<path d="M17.022 3.84548L1.98901 -11.1875L-3.02198 -6.17651L12.011 8.85647L17.022 3.84548Z" fill="#222222"/>
</g>
<g opacity="0.0893333">
<path d="M27.046 58.9778L22.035 53.9668L7.00206 68.9998L12.013 74.0108L27.046 58.9778Z" fill="#DDDDDD"/>
<path d="M27.046 68.9998L12.0131 53.9668L7.00207 58.9778L22.035 74.0108L27.046 68.9998Z" fill="#DDDDDD"/>
</g>
<g opacity="0.0893333">
<path d="M27.046 -1.16479L22.035 -6.17578L7.00206 8.8572L12.013 13.8682L27.046 -1.16479Z" fill="#DDDDDD"/>
<path d="M27.046 8.8572L12.0131 -6.17578L7.00207 -1.16479L22.035 13.8682L27.046 8.8572Z" fill="#DDDDDD"/>
</g>
<g opacity="0.115333">
<path d="M37.07 53.9661L32.059 48.9551L17.026 63.9881L22.037 68.999L37.07 53.9661Z" fill="#222222"/>
<path d="M37.07 63.9881L22.037 48.9551L17.026 53.9661L32.059 68.999L37.07 63.9881Z" fill="#222222"/>
</g>
<g opacity="0.115333">
<path d="M37.07 -6.17651L32.059 -11.1875L17.026 3.84548L22.037 8.85647L37.07 -6.17651Z" fill="#222222"/>
<path d="M37.07 3.84548L22.037 -11.1875L17.026 -6.17651L32.059 8.85647L37.07 3.84548Z" fill="#222222"/>
</g>
<g opacity="0.15">
<path d="M47.094 58.9778L42.083 53.9668L27.05 68.9998L32.061 74.0108L47.094 58.9778Z" fill="#222222"/>
<path d="M47.094 68.9998L32.061 53.9668L27.05 58.9778L42.083 74.0108L47.094 68.9998Z" fill="#222222"/>
</g>
<g opacity="0.15">
<path d="M47.094 -1.16479L42.083 -6.17578L27.05 8.8572L32.061 13.8682L47.094 -1.16479Z" fill="#222222"/>
<path d="M47.094 8.8572L32.061 -6.17578L27.05 -1.16479L42.083 13.8682L47.094 8.8572Z" fill="#222222"/>
</g>
<g opacity="0.046">
<path d="M57.118 53.9661L52.1071 48.9551L37.0741 63.9881L42.0851 68.999L57.118 53.9661Z" fill="#222222"/>
<path d="M57.1181 63.9881L42.0851 48.9551L37.0741 53.9661L52.1071 68.999L57.1181 63.9881Z" fill="#222222"/>
</g>
<g opacity="0.046">
<path d="M57.118 -6.17651L52.1071 -11.1875L37.0741 3.84548L42.0851 8.85647L57.118 -6.17651Z" fill="#222222"/>
<path d="M57.1181 3.84548L42.0851 -11.1875L37.0741 -6.17651L52.1071 8.85647L57.1181 3.84548Z" fill="#222222"/>
</g>
<g opacity="0.141333">
<path d="M67.1421 58.9778L62.1311 53.9668L47.0981 68.9998L52.1091 74.0108L67.1421 58.9778Z" fill="#DDDDDD"/>
<path d="M67.1421 68.9998L52.1091 53.9668L47.0981 58.9778L62.1311 74.0108L67.1421 68.9998Z" fill="#DDDDDD"/>
</g>
<g opacity="0.141333">
<path d="M67.1421 -1.16479L62.1311 -6.17578L47.0981 8.8572L52.1091 13.8682L67.1421 -1.16479Z" fill="#DDDDDD"/>
<path d="M67.1421 8.8572L52.1091 -6.17578L47.0981 -1.16479L62.1311 13.8682L67.1421 8.8572Z" fill="#DDDDDD"/>
</g>
</g>
<defs>
<clipPath id="clip0_356_8414">
<rect width="60" height="60" fill="white" transform="translate(7 8)"/>
</clipPath>
</defs>
</svg>
