<svg width="75" height="55" viewBox="0 0 75 55" fill="none" xmlns="http://www.w3.org/2000/svg">
<path d="M71.5345 21.2245C69.9356 20.077 66.2716 19.6467 63.4072 20.2204C63.0744 17.3516 61.5421 14.8416 58.8774 12.6183L57.3453 11.4707L56.2792 13.1203C54.9471 15.272 54.2809 18.2842 54.4806 21.1531C54.5472 22.1569 54.8803 23.9499 55.8796 25.5278C54.9471 26.1016 53.0151 26.8188 50.4838 26.8188H2.32026L2.18713 27.3926C1.72064 30.2611 1.72064 39.226 7.18321 46.1109C11.3134 51.3463 17.4422 54 25.5026 54C42.9559 54 55.8796 45.3217 61.9417 29.6156C64.3399 29.6874 69.4694 29.6156 72.0676 24.2365C72.1341 24.0931 72.2673 23.8062 72.7335 22.7307L73 22.1569L71.5345 21.2245ZM40.8242 1H33.4968V8.17184H40.8242V1ZM40.8242 9.60626H33.4968V16.7781H40.8242V9.60626ZM32.1641 9.60626H24.8367V16.7781H32.1641V9.60626ZM23.5041 9.60626H16.1764V16.7781H23.5041V9.60626ZM14.844 18.2125H7.5163V25.3844H14.8437L14.844 18.2125ZM23.5041 18.2125H16.1764V25.3844H23.5041V18.2125ZM32.1641 18.2125H24.8367V25.3844H32.1641V18.2125ZM40.8245 18.2125H33.4965V25.3844H40.8245V18.2125ZM49.4846 18.2125H42.1566V25.3844H49.4846V18.2125Z" fill="#2396ED"/>
</svg>
