<svg width="75" height="75" viewBox="0 0 75 75" fill="none" xmlns="http://www.w3.org/2000/svg">
<g clip-path="url(#clip0_315_26377)">
<path d="M75 58.0884C73.9084 58.5005 72.7038 58.4993 71.613 58.0848C70.5223 57.6704 69.6207 56.8714 69.0782 55.8384L58.2969 40.929L56.7344 38.8446L44.225 55.8571C43.7156 56.8473 42.863 57.618 41.8266 58.0252C40.7902 58.4324 39.641 58.4482 38.5938 58.0696L54.7125 36.4446L39.7188 16.9102C40.7969 16.5217 41.976 16.5166 43.0574 16.8957C44.1389 17.2747 45.0567 18.0149 45.6563 18.9915L56.8313 34.0852L68.0688 19.054C68.5822 18.0815 69.435 17.3315 70.4652 16.9466C71.4953 16.5617 72.631 16.5688 73.6563 16.9665L67.8375 24.6884L59.9563 34.9477C59.7374 35.143 59.5623 35.3823 59.4424 35.6499C59.3225 35.9176 59.2605 36.2076 59.2605 36.5009C59.2605 36.7942 59.3225 37.0841 59.4424 37.3518C59.5623 37.6195 59.7374 37.8588 59.9563 38.054L74.9688 58.0915L75 58.0884ZM0.00629096 36.1759L1.31879 29.6915C4.92504 16.8696 19.625 11.5352 29.7375 19.4727C35.6594 24.1259 37.1375 30.7134 36.8469 38.1384H3.48754C2.94692 51.3977 12.5157 59.404 24.75 55.3134C26.7331 54.599 28.508 53.4041 29.9162 51.8357C31.3243 50.2672 32.3215 48.3742 32.8188 46.3259C33.4657 44.2446 34.5313 43.8884 36.4875 44.4884C36.1609 47.0269 35.2632 49.4583 33.8619 51.6C32.4606 53.7418 30.5921 55.5381 28.3969 56.854C24.7704 58.8388 20.6089 59.6256 16.5081 59.1019C12.4072 58.5782 8.57705 56.7708 5.56567 53.9384C2.58861 50.5858 0.788907 46.3521 0.440666 41.8821C0.440666 41.1477 0.190666 40.4602 0.021916 39.8009C0.00667385 38.5936 -0.000617976 37.3863 4.09578e-05 36.179L0.00629096 36.1759ZM3.52817 35.2821H33.6969C33.5094 25.6696 27.4438 18.8509 19.3532 18.7884C10.3469 18.6634 3.90317 25.3321 3.50629 35.2384L3.52817 35.2821Z" fill="#DDDDDD"/>
</g>
<defs>
<clipPath id="clip0_315_26377">
<rect width="75" height="75" fill="white"/>
</clipPath>
</defs>
</svg>
