<svg width="51" height="75" viewBox="0 0 51 75" fill="none" xmlns="http://www.w3.org/2000/svg">
<g clip-path="url(#clip0_39_56)">
<path d="M12.5078 75C19.4078 75 25.0078 69.4 25.0078 62.5V50H12.5078C5.60781 50 0.0078125 55.6 0.0078125 62.5C0.0078125 69.4 5.60781 75 12.5078 75Z" fill="#0ACF83"/>
<path d="M0.0078125 37.5C0.0078125 30.6 5.60781 25 12.5078 25H25.0078V50H12.5078C5.60781 50 0.0078125 44.4 0.0078125 37.5Z" fill="#A259FF"/>
<path d="M0.0078125 12.5C0.0078125 5.6 5.60781 0 12.5078 0H25.0078V25H12.5078C5.60781 25 0.0078125 19.4 0.0078125 12.5Z" fill="#F24E1E"/>
<path d="M25.0078 0H37.5078C44.4078 0 50.0078 5.6 50.0078 12.5C50.0078 19.4 44.4078 25 37.5078 25H25.0078V0Z" fill="#FF7262"/>
<path d="M50.0078 37.5C50.0078 44.4 44.4078 50 37.5078 50C30.6078 50 25.0078 44.4 25.0078 37.5C25.0078 30.6 30.6078 25 37.5078 25C44.4078 25 50.0078 30.6 50.0078 37.5Z" fill="#1ABCFE"/>
</g>
<defs>
<clipPath id="clip0_39_56">
<rect width="50.0156" height="75" fill="white"/>
</clipPath>
</defs>
</svg>
