<svg width="75" height="75" viewBox="0 0 75 75" fill="none" xmlns="http://www.w3.org/2000/svg">
<g clip-path="url(#clip0_33_16)">
<mask id="mask0_33_16" style="mask-type:luminance" maskUnits="userSpaceOnUse" x="8" y="1" width="59" height="77">
<path d="M66.8883 1.95825H8.32007V77.9999H66.8883V1.95825Z" fill="white"/>
</mask>
<g mask="url(#mask0_33_16)">
<path d="M27.3918 72.8471C30.4225 74.0677 33.7101 74.7919 37.1624 74.9125C41.8346 75.0756 46.2774 74.1091 50.2493 72.2731C45.4865 70.4005 41.1725 67.6624 37.4911 64.2573C35.1051 68.0811 31.5754 71.1007 27.3918 72.8471Z" fill="#FF9100"/>
<path d="M37.4906 64.2587C29.0868 56.4811 23.9888 45.2243 24.4198 32.8778C24.4337 32.4768 24.4551 32.0762 24.4797 31.6757C22.9747 31.2861 21.4034 31.0486 19.7864 30.9919C17.4719 30.911 15.2304 31.1984 13.1142 31.7947C10.8709 35.7269 9.51712 40.2386 9.34847 45.0713C8.91322 57.5437 16.4558 68.4413 27.3912 72.8485C31.5745 71.1021 35.1041 68.0857 37.4906 64.2587Z" fill="#FFC400"/>
<path d="M37.4908 64.2583C39.4446 61.1293 40.6292 57.4612 40.7674 53.5093C41.1301 43.1136 34.1463 34.1708 24.4799 31.6753C24.4553 32.0759 24.4343 32.4765 24.4201 32.8774C23.9894 45.224 29.0874 56.4807 37.4908 64.2583Z" fill="#FF9100"/>
<path d="M39.6863 2.45349C34.1812 6.86679 29.8339 12.6861 27.2038 19.3899C25.6978 23.2295 24.7517 27.3542 24.4753 31.6779C34.1414 34.1733 41.1256 43.1162 40.7625 53.5119C40.6247 57.4638 39.4368 61.1283 37.4862 64.2609C41.1676 67.6689 45.4813 70.4038 50.2444 72.2764C59.8043 67.8543 66.5872 58.3387 66.9797 47.0839C67.2344 39.7917 64.4344 33.2929 60.4783 27.8069C56.3002 22.0051 39.6863 2.45349 39.6863 2.45349Z" fill="#DD2C00"/>
</g>
</g>
<defs>
<clipPath id="clip0_33_16">
<rect width="75" height="75" fill="white"/>
</clipPath>
</defs>
</svg>
