<svg width="75" height="75" viewBox="0 0 75 75" fill="none" xmlns="http://www.w3.org/2000/svg">
<path d="M67.9526 31.1477L67.8639 30.9199L59.2891 8.4194C59.1145 7.97833 58.8055 7.60415 58.4064 7.35052C58.0072 7.10115 57.5414 6.98102 57.0721 7.00634C56.6027 7.03167 56.1524 7.20123 55.782 7.49213C55.4162 7.79177 55.1507 8.19704 55.0212 8.65323L49.2316 26.4639H25.7871L19.997 8.65323C19.8711 8.19454 19.6049 7.78728 19.2361 7.4891C18.8657 7.19821 18.4154 7.02864 17.9461 7.00332C17.4768 6.97799 17.011 7.09813 16.6117 7.34749C16.2136 7.60217 15.9049 7.97601 15.7291 8.41638L7.13821 30.9068L7.053 31.1346C4.51733 37.7963 6.67057 45.342 12.3343 49.6377L12.3639 49.6609L12.4426 49.7168L25.5049 59.5519L31.9671 64.4695L35.9037 67.4579C36.3641 67.8096 36.9264 68 37.5046 68C38.0828 68 38.6451 67.8096 39.1055 67.4579L43.042 64.4695L49.5043 59.5519L62.6452 49.6573L62.6778 49.6311C68.328 45.3344 70.4778 37.8023 67.9526 31.1477Z" fill="#E24329"/>
<path d="M73.0986 30.1066L72.9949 29.8418C68.1105 30.8446 63.5078 32.9136 59.5154 35.901L37.5 52.548C44.9971 58.2199 51.5238 63.1477 51.5238 63.1477L66.8859 51.6434L66.924 51.6129C73.5398 46.6166 76.0564 37.8504 73.0986 30.1066Z" fill="#FC6D26"/>
<path d="M23.4762 63.1465L31.0307 68.8641L35.6326 72.3387C36.1709 72.7476 36.8282 72.9689 37.5041 72.9689C38.1801 72.9689 38.8374 72.7476 39.3756 72.3387L43.9776 68.8641L51.5321 63.1465C51.5321 63.1465 44.9977 58.2035 37.5006 52.5469C32.8229 56.0763 28.1481 59.6095 23.4762 63.1465Z" fill="#FCA326"/>
<path d="M15.4804 35.9006C11.4917 32.9066 6.88989 30.8323 2.00503 29.8262L1.90542 30.091C-1.05884 37.8365 1.45835 46.6098 8.07944 51.6043L8.11401 51.6312L8.20601 51.6963L23.4761 63.1314L37.5 52.5318L15.4804 35.9006Z" fill="#FC6D26"/>
</svg>
