<svg width="75" height="75" viewBox="0 0 75 75" fill="none" xmlns="http://www.w3.org/2000/svg">
<path d="M53.4375 26.8751V19.3751C55.3125 18.4376 56.875 16.5626 56.875 14.3751V14.0626C56.875 10.9376 54.375 8.43759 51.25 8.43759H50.9375C47.8125 8.43759 45.3125 10.9376 45.3125 14.0626V14.3751C45.3125 16.5626 46.5625 18.4376 48.75 19.3751V26.8751C45.9375 27.1876 43.125 28.4376 40.9375 30.3126L20.3125 14.3751C21.25 10.9376 19.0625 7.18759 15.625 6.56259C12.1875 5.93759 8.74996 7.50009 7.81246 10.9376C6.87496 14.3751 9.06246 18.1251 12.5 19.0626C14.0625 19.3751 15.9375 19.3751 17.5 18.4376L37.5 34.0626C33.75 39.6876 33.75 46.8751 37.8125 52.5001L31.5625 58.7501C30.9375 58.7501 30.625 58.4376 30 58.4376C27.1875 58.4376 24.6875 60.9376 24.6875 63.7501C24.6875 66.5626 27.1875 68.7501 30 68.7501C32.8125 68.7501 35.3125 66.2501 35.3125 63.4376C35.3125 62.8126 35.3125 62.5001 35 61.8751L40.9375 55.9376C48.125 61.2501 58.4375 60.0001 63.75 52.8126C69.0625 45.6251 67.8125 35.3126 60.625 30.0001C58.75 28.4376 56.25 27.1876 53.4375 26.8751ZM50.9375 51.2501C46.25 51.2501 42.5 47.5001 42.5 42.8126C42.5 38.1251 46.25 34.3751 50.9375 34.3751C55.625 34.3751 59.375 38.1251 59.375 42.8126C59.375 47.5001 55.625 51.2501 50.9375 51.2501Z" fill="#F8761F"/>
</svg>
