<svg width="75" height="74" viewBox="0 0 75 74" fill="none" xmlns="http://www.w3.org/2000/svg">
<path d="M59.209 5H15.791C9.8313 5 5 9.80271 5 15.7272V57.2728C5 63.1973 9.8313 68 15.791 68H59.209C65.1687 68 70 63.1973 70 57.2728V15.7272C70 9.80271 65.1687 5 59.209 5Z" fill="#330000"/>
<path d="M36.0795 43.1827H26.0087L23.9595 49.6018C23.9316 49.7189 23.8641 49.8225 23.7686 49.8947C23.6731 49.967 23.5556 50.0034 23.4363 49.9976H18.3354C18.0446 49.9976 17.9429 49.8363 18.0303 49.5137L26.7497 24.189C26.8369 23.9253 26.924 23.6249 27.0112 23.2878C27.1254 22.701 27.1838 22.105 27.1856 21.5072C27.1797 21.4654 27.1835 21.4227 27.1967 21.3827C27.2099 21.3426 27.2322 21.3062 27.2618 21.2763C27.2915 21.2464 27.3276 21.2239 27.3673 21.2105C27.407 21.1971 27.4493 21.1932 27.4908 21.1992H34.4228C34.6259 21.1992 34.7421 21.2726 34.7716 21.4194L44.668 49.5578C44.7551 49.8513 44.668 49.9979 44.4065 49.9976H38.7387C38.6414 50.0083 38.5436 49.983 38.4634 49.9264C38.3832 49.8698 38.3261 49.7857 38.3028 49.6899L36.0795 43.1827ZM27.5781 37.6429H34.4664L34.3682 37.316L34.2105 36.7983L34.0981 36.4348L33.9186 35.8623L33.537 34.6573L33.2014 33.5889L32.3299 30.806C32.113 30.1142 31.9048 29.4197 31.7054 28.7225L31.546 28.1567L31.3596 27.4878L31.0753 26.4509L31.022 26.2555H30.9786C30.7604 27.3109 30.4947 28.3556 30.1825 29.3866L29.5356 31.485L29.1797 32.6442L28.8205 33.8178C28.7557 34.0298 28.6909 34.2394 28.6263 34.4466L28.4334 35.0605L28.2414 35.6601L28.0505 36.2448L27.8606 36.815C27.7977 37.0027 27.7348 37.1879 27.672 37.3705L27.5781 37.6429ZM50.553 25.8597C50.1084 25.8777 49.665 25.8008 49.2518 25.6341C48.8387 25.4675 48.465 25.2147 48.1553 24.8925C47.8466 24.5561 47.6068 24.1616 47.4497 23.7315C47.2926 23.3014 47.2212 22.8443 47.2396 22.3863C47.2238 21.933 47.303 21.4813 47.472 21.0609C47.641 20.6405 47.8961 20.2608 48.2205 19.9465C48.8463 19.3407 49.6797 19.0016 50.5472 19L50.6401 19.001C51.6865 19.001 52.5077 19.3161 53.1036 19.9462C53.4043 20.2738 53.638 20.6579 53.7913 21.0766C53.9447 21.4953 54.0146 21.9403 53.9972 22.3863C54.0157 22.8462 53.9422 23.305 53.7812 23.7356C53.6202 24.1662 53.3749 24.5597 53.0599 24.8928C52.7421 25.2086 52.3648 25.4572 51.9503 25.6239C51.5358 25.7905 51.0924 25.8718 50.6462 25.8631L50.553 25.8597ZM47.5448 49.5578V28.5418C47.5446 28.2779 47.6609 28.146 47.8936 28.146H53.2562C53.4886 28.146 53.6048 28.2779 53.605 28.5418V49.5578C53.605 49.8513 53.4887 49.9979 53.2562 49.9976H47.9372C47.6895 49.9976 47.5591 49.866 47.546 49.6028L47.5448 49.5578Z" fill="#FF9A00"/>
</svg>
