<svg width="69" height="75" viewBox="0 0 69 75" fill="none" xmlns="http://www.w3.org/2000/svg">
<path d="M42.6312 35L27.8308 39.906L14.9547 45.6749L11.3524 46.6403C10.435 47.5262 9.47301 48.4234 8.43259 49.3319C7.29153 50.3312 6.22878 51.2398 5.412 51.8984C4.50592 52.6252 3.16347 53.9879 2.48112 54.8509C1.46305 56.1455 0.657613 57.5195 0.310792 58.5758C-0.304541 60.4837 -0.00234281 62.4142 1.18344 64.1973C2.70486 66.4685 5.73659 68.7851 9.27156 70.3636C11.0728 71.1701 14.1044 72.2034 16.3865 72.7825C20.1788 73.7592 27.5175 74.8154 31.5559 74.9745C32.3724 75.0085 33.4689 75.0085 33.5135 74.9745C33.6031 74.9175 34.2296 73.7025 34.9569 72.1922C37.4404 67.0477 39.2303 62.2212 40.2035 58.099C40.7851 55.6007 41.2438 52.2732 41.5457 48.3327C41.6242 47.2311 41.6576 43.5403 41.5905 42.291C41.4897 40.2469 41.3107 38.589 41.0313 36.965C40.9865 36.7265 40.9751 36.5107 40.9976 36.4994C41.0423 36.4653 41.1765 36.4199 43 35.886L42.6312 35ZM39.2527 37.0102C39.387 37.0102 39.7448 40.4965 39.8343 42.6998C39.8568 43.1653 39.8454 43.472 39.8232 43.472C39.7337 43.472 37.9325 42.3932 36.6463 41.5756C35.5275 40.8601 33.402 39.4291 33.0665 39.1566C32.9544 39.0772 32.9655 39.0659 33.883 38.7478C35.4378 38.2139 39.1297 37.0102 39.2527 37.0102ZM31.7127 39.5314C31.8134 39.5314 32.0706 39.6788 32.6859 40.065C34.9903 41.53 38.1228 43.3017 39.4652 43.8923C39.8791 44.0739 39.9237 44.0057 38.973 44.6645C36.9369 46.0726 34.3974 47.458 31.2874 48.8549C30.7393 49.1047 30.2807 49.2977 30.2695 49.2977C30.2473 49.2977 30.3142 49.014 30.4036 48.6732C31.1531 45.8453 31.5783 42.9836 31.6008 40.6896C31.6119 39.5539 31.6119 39.5539 31.7127 39.52C31.6902 39.5314 31.7013 39.5314 31.7127 39.5314ZM30.1578 40.1332C30.2247 40.2012 30.18 42.7451 30.0905 43.4378C29.8891 45.0959 29.5759 46.6403 29.0615 48.378C28.9384 48.7978 28.8263 49.1501 28.8042 49.1727C28.7592 49.2295 27.2266 47.7078 26.7232 47.1172C25.8506 46.0951 25.1683 45.0731 24.6649 44.0738C24.4076 43.5627 24.0049 42.5635 24.0384 42.5293C24.2174 42.4044 30.113 40.0878 30.1578 40.1332ZM22.8413 43.0517C22.8525 43.0517 22.8636 43.0517 22.875 43.063C22.8973 43.0857 22.9757 43.2675 23.0428 43.4719C23.4007 44.4599 24.206 45.9135 24.8998 46.8447C25.6605 47.8668 26.6563 48.9569 27.4839 49.6724C27.7525 49.8995 27.9985 50.1152 28.0319 50.1494C28.0992 50.2175 28.1216 50.2061 26.298 50.9103C24.1839 51.7279 21.8792 52.5455 19.239 53.4085C18.6084 53.615 17.9783 53.8232 17.3487 54.0332C17.2479 54.0673 17.2815 54.0105 17.5724 53.545C18.8812 51.4667 20.8724 47.3898 21.9912 44.5053C22.1814 44.0056 22.3715 43.506 22.4052 43.3924C22.4499 43.2333 22.5058 43.1766 22.6511 43.0971C22.7294 43.0745 22.8079 43.0517 22.8413 43.0517ZM20.6041 43.9943C20.6376 44.0171 20.0671 45.2321 19.5077 46.345C18.4225 48.4913 17.2367 50.6038 15.6482 53.1702C15.3798 53.613 15.1225 54.022 15.0889 54.0674C15.033 54.1469 15.0105 54.1241 14.8316 53.7721C14.4512 53.0112 14.1379 52.0345 13.9701 51.1373C13.8023 50.2515 13.8359 48.7071 14.0262 47.7533C14.1714 47.0492 14.1604 47.0606 14.496 46.8902C15.9279 46.1521 20.5594 43.9489 20.6041 43.9943ZM39.9016 44.7893V45.2662C39.9016 47.7987 39.6331 51.2737 39.2414 53.8063C39.1743 54.2491 39.1182 54.6124 39.1072 54.6239C39.1072 54.6239 38.7828 54.5332 38.4024 54.4194C36.7245 53.8856 34.9009 53.102 33.2564 52.1823C32.1711 51.5804 30.5939 50.5923 30.6387 50.5468C30.6497 50.5356 31.1197 50.2857 31.6677 49.9904C33.8606 48.8321 35.9636 47.583 37.7871 46.3451C38.4696 45.8795 39.4986 45.1301 39.7226 44.9256L39.9016 44.7893ZM12.1578 48.1506C12.2025 48.1506 12.1913 48.2414 12.1242 48.6503C12.0795 48.9456 12.0236 49.4907 12.0013 49.8653C11.9116 51.5234 12.1803 52.75 12.9857 54.4306C13.2095 54.8963 13.3886 55.2824 13.3772 55.2936C13.2989 55.3619 5.89326 57.5651 3.56621 58.2123C2.87267 58.4053 2.26868 58.5757 2.2237 58.5869C2.14555 58.6097 2.1343 58.5984 2.16783 58.4052C2.4251 56.736 3.6781 54.5555 5.4232 52.7157C6.5867 51.4893 7.51527 50.7739 9.10379 49.8539C10.2449 49.1954 12.0012 48.2075 12.1354 48.1619C12.1355 48.1506 12.1467 48.1506 12.1578 48.1506ZM29.6095 51.319C29.6207 51.3077 29.8891 51.4554 30.2135 51.6484C32.6076 53.0566 35.9413 54.3626 38.7826 55.0326L39.0401 55.0895L38.682 55.2936C37.1942 56.1341 32.3055 58.2009 27.305 60.0975C26.5778 60.3699 25.8619 60.6426 25.7274 60.6993C25.5932 60.756 25.4701 60.7902 25.4701 60.7788C25.4701 60.7673 25.6716 60.3699 25.9287 59.8817C27.3271 57.2243 28.7368 53.9878 29.4527 51.7392C29.5424 51.5234 29.5982 51.3305 29.6095 51.319ZM27.8308 51.9096C27.8422 51.9212 27.7525 52.1595 27.6406 52.432C26.6674 54.8281 25.3919 57.4403 23.7587 60.3701C23.3449 61.1197 22.998 61.7216 22.9867 61.7216C22.9757 61.7216 22.6399 61.5171 22.2372 61.2673C19.8655 59.7909 17.7624 57.9739 16.3865 56.2137L16.1851 55.9638L17.203 55.6799C20.85 54.6693 23.9487 53.5791 27.0252 52.2391C27.4616 52.0573 27.8197 51.9096 27.8308 51.9096ZM38.8835 55.8275C38.8947 56.0887 38.3241 58.4282 37.8542 60.1201C37.4627 61.5396 37.1269 62.6527 36.5118 64.6172C36.2434 65.4804 36.0086 66.1957 35.9972 66.1957C35.9861 66.1957 35.919 66.1844 35.8519 66.1618C32.5294 65.5484 29.5536 64.6967 26.7569 63.5612C25.9737 63.2431 24.855 62.732 24.7879 62.6753C24.7656 62.6524 25.4369 62.3346 26.2871 61.9598C31.3771 59.6999 36.6573 57.1333 38.4695 56.0319C38.682 55.8956 38.8499 55.8275 38.8835 55.8275ZM13.3661 56.7134C13.3885 56.736 11.9677 58.8143 9.97634 61.642C9.2828 62.63 8.47737 63.7883 8.17538 64.2198C7.87328 64.6514 7.41467 65.3328 7.15735 65.7416L6.68729 66.4798L6.18385 66.0483C5.59091 65.5485 4.56184 64.4811 4.10318 63.8905C3.14103 62.6755 2.49232 61.3922 2.235 60.2226C2.11191 59.6774 2.11191 59.4047 2.22365 59.3709C2.39141 59.3255 5.37837 58.61 8.17527 57.9512C9.73027 57.5879 11.5312 57.1564 12.1801 56.9974C12.829 56.8381 13.3549 56.7134 13.3661 56.7134ZM14.7979 57.2699L15.1558 57.6786C16.7669 59.507 18.4114 60.8586 20.4027 62.0394C20.7607 62.244 21.0291 62.4256 21.0066 62.4371C20.9285 62.4938 14.0931 64.9579 10.9273 66.0709C9.14862 66.7068 7.68303 67.2178 7.67199 67.2178C7.66085 67.2178 7.5601 67.1498 7.44805 67.0702L7.24681 66.9226L7.57119 66.4457C8.62269 64.9012 9.94297 63.2092 12.818 59.6887L14.7979 57.2699ZM23.7253 63.7542C23.7363 63.7429 24.2285 63.9245 24.8326 64.1519C26.2871 64.7082 27.4391 65.0602 28.9831 65.4577C30.8849 65.9461 33.6368 66.4231 35.259 66.5593C35.5051 66.5819 35.6394 66.6047 35.5946 66.6388C35.5161 66.6843 33.8718 67.2407 32.6636 67.6269C30.7393 68.24 24.8662 70.0002 20.0783 71.3971C19.1945 71.6583 18.4337 71.8741 18.389 71.8853C18.2773 71.9082 17.9079 71.8058 17.9079 71.7604C17.9079 71.7378 18.1764 71.3858 18.5009 70.9996C20.1117 69.0463 21.7116 66.866 23.0428 64.7991C23.4119 64.2311 23.7253 63.7655 23.7253 63.7542ZM21.7563 63.8111C21.7673 63.8224 20.9732 65.117 19.5861 67.3428C18.9931 68.2853 18.333 69.3528 18.098 69.7276C17.8743 70.091 17.5387 70.6589 17.3486 70.9768L17.0241 71.556L16.8564 71.5106C16.4535 71.397 13.6233 70.3862 12.8737 70.0796C11.9452 69.7048 10.9831 69.2507 10.2671 68.8646C9.37226 68.3762 8.25364 67.6493 8.34304 67.6268C8.36537 67.6154 9.89803 67.1951 11.7438 66.6842C16.6437 65.3326 19.3621 64.5491 21.141 63.9814C21.4655 63.8791 21.7451 63.7996 21.7563 63.8111ZM35.684 67.127H35.6951C35.7399 67.2406 33.9278 72.3509 33.2674 73.9635C33.1222 74.3268 33.0665 74.4179 32.988 74.4063C32.7978 74.3951 30.1689 74.0203 28.569 73.7818C25.7836 73.3503 21.1074 72.5211 19.9328 72.2487L19.6644 72.192L21.331 71.8056C24.911 70.988 26.6337 70.5452 28.3788 70.0001C30.5827 69.3187 32.7643 68.4669 34.968 67.4223C35.3148 67.2632 35.6057 67.1383 35.684 67.127Z" fill="#DDDDDD"/>
<path d="M27.5898 0.000573162C27.337 -0.0328143 23.2584 1.39955 20.6275 2.44013C17.0774 3.8503 14.3203 5.19323 12.6199 6.35679C11.9881 6.79341 11.1952 7.56545 11.069 7.86754C11.0231 7.97946 11 8.11374 11 8.24801L12.5396 9.66922L16.2044 10.8106L24.9244 12.3326L34.8965 14L35 13.1607C34.9656 13.1607 34.9425 13.1496 34.9083 13.1496L33.5983 12.9481L33.3342 12.4893C31.9785 10.1616 30.485 7.27446 29.6119 5.3273C28.9341 3.81655 28.2907 2.07101 27.9345 0.817612C27.7391 0.0566662 27.716 0.0117195 27.5898 0.000573162ZM27.4057 0.571463H27.4175C27.4288 0.582507 27.4748 0.89605 27.5209 1.26512C27.716 2.83201 28.0724 4.3425 28.6353 5.97637C29.0603 7.20737 29.0603 7.14029 28.5663 6.99471C27.3945 6.68148 22.1442 5.79741 18.3414 5.28266C17.7325 5.20428 17.2154 5.12599 17.2154 5.11485C17.1695 5.07011 19.9612 3.64879 21.1905 3.08941C22.7645 2.38425 27.0842 0.62735 27.4057 0.571463ZM16.3306 5.58475L16.7789 5.73007C19.2143 6.53591 25.3377 7.67738 28.7156 7.94592C29.0946 7.97952 29.4164 8.01316 29.4277 8.01316C29.4392 8.02431 29.1177 8.19217 28.704 8.38233C27.0728 9.17687 25.2804 10.1505 24.0396 10.9003C23.6721 11.124 23.3387 11.3031 23.2929 11.3031C23.2469 11.3031 23.0058 11.2584 22.753 11.2248L22.2935 11.1575L21.1447 10.0608C19.1227 8.14733 17.5372 6.67023 16.9282 6.11059L16.3306 5.58475ZM15.8713 5.93158L17.4911 7.90118C18.3757 8.98666 19.2718 10.0497 19.4673 10.2846C19.6624 10.5198 19.8234 10.7101 19.8119 10.7212C19.766 10.7548 17.4684 10.3182 16.2504 10.0498C14.9981 9.76995 14.4811 9.63568 13.7114 9.40078L13.0795 9.19927V9.0425C13.0909 8.2927 14.0676 7.17373 15.7219 6.03241L15.8713 5.93158ZM29.6347 8.61734C29.6808 8.61734 29.738 8.71801 29.8759 9.02015C30.2665 9.85938 31.4845 12.12 31.783 12.5563C31.8751 12.702 32.0357 12.7131 30.416 12.4557C26.5214 11.8401 25.269 11.6389 25.269 11.6165C25.269 11.6053 25.3839 11.527 25.5332 11.4486C26.7396 10.7997 27.9573 9.97146 29.0374 9.08739C29.3016 8.87473 29.5429 8.67333 29.5887 8.63968C29.6002 8.61734 29.6233 8.60619 29.6347 8.61734Z" fill="#939FAB"/>
<path d="M11.8904 8C11.8904 8 11.6447 8.39768 11.8793 8.98831C12.0248 9.35163 12.4494 9.79451 12.93 10.2489C12.93 10.2489 17.9038 15.1781 18.5074 15.8824C21.2569 19.1079 22.4529 22.2881 22.5647 26.6722C22.6318 29.4889 22.1063 31.9649 20.7987 34.8384C18.4738 39.9948 13.5669 45.6851 6 52L7.10672 51.6252C7.82202 51.0799 8.79447 50.5008 11.0745 49.2287C16.3389 46.2982 22.2629 43.6065 29.5281 40.8352C39.9897 36.8372 57.1917 32.1578 66.9827 30.636L68 30.4769L67.8434 30.227C66.9494 28.8186 66.3345 27.9442 65.5967 27.0128C63.4508 24.3097 60.8467 22.1177 57.661 20.3004C53.2796 17.8132 47.6125 15.8711 40.437 14.4286C39.0846 14.1559 36.1114 13.6335 33.6971 13.2587C28.5779 12.4525 25.2695 11.8959 21.6258 11.2599C20.3181 11.0326 18.362 10.692 17.0654 10.4081C16.3948 10.2603 15.1095 9.95368 14.1036 9.60162C13.2989 9.28344 12.1363 8.96542 11.8904 8ZM14.7743 10.8395C14.7853 10.8283 14.9641 10.8963 15.199 10.9758C15.6237 11.1233 16.1714 11.2937 16.8198 11.4756C17.3104 11.6127 17.8022 11.7452 18.2952 11.8731C18.9658 12.0433 19.5246 12.2024 19.5357 12.2024C19.6141 12.2819 20.743 15.9502 21.123 17.3586C21.2681 17.8926 21.3801 18.3468 21.3689 18.3468C21.3574 18.3583 21.2347 18.1651 21.0894 17.9039C19.7816 15.5642 17.7139 13.1904 15.3219 11.2823C15.0091 11.0553 14.7743 10.8509 14.7743 10.8395ZM20.2735 12.3842C20.3294 12.3842 20.5753 12.4183 20.8769 12.4864C22.7771 12.9179 26.1862 13.5767 28.3657 13.9515C28.7345 14.0083 29.0252 14.0766 29.0252 14.0991C29.0252 14.122 28.891 14.2013 28.7233 14.2923C28.3546 14.4853 26.8679 15.3825 26.3762 15.7233C25.1354 16.5637 24.0179 17.4723 23.213 18.29C22.8889 18.6195 22.6094 18.892 22.6094 18.892C22.6094 18.892 22.5425 18.699 22.4864 18.4604C22.0842 16.8816 21.2458 14.5419 20.4858 12.8951C20.3628 12.634 20.2621 12.3954 20.2621 12.3728C20.2621 12.3955 20.2621 12.3842 20.2735 12.3842ZM29.9529 14.2582C30.0199 14.2808 30.1317 14.667 30.3552 15.5188C30.7688 17.1658 30.9589 19.0057 30.8918 20.7207C30.8693 21.1977 30.8471 21.6406 30.8246 21.6975L30.7911 21.811L30.2099 21.618C29.014 21.2318 27.0692 20.6525 25.4039 20.1755C24.4536 19.9143 23.6826 19.6758 23.6826 19.6531C23.6826 19.5849 25.0686 18.1766 25.661 17.6428C26.7896 16.6318 29.8522 14.224 29.9529 14.2582ZM30.7241 14.3716C30.7577 14.3378 35.3515 15.144 37.4416 15.5529C38.9954 15.8595 41.2531 16.3366 41.3872 16.3935C41.4542 16.4161 41.2194 16.5524 40.4705 16.8931C37.5198 18.2447 35.329 19.4598 33.1497 20.9365C32.5796 21.3226 32.0989 21.6406 32.0878 21.6406C32.0767 21.6406 32.0655 21.3113 32.0655 20.9138C32.0655 18.7559 31.6407 16.5751 30.8581 14.7352C30.78 14.5535 30.7129 14.3832 30.7241 14.3716ZM42.6054 16.7569C42.639 16.7909 42.4936 17.711 42.3595 18.2561C41.9572 19.9484 40.873 22.4586 39.5431 24.8209C39.3081 25.2411 39.0958 25.5819 39.0733 25.5932C39.0512 25.6045 38.7494 25.4341 38.4028 25.2296C37.1063 24.4573 35.631 23.7305 34.0213 23.0489C33.5744 22.8559 33.1831 22.6968 33.1719 22.6743C33.0935 22.606 36.6927 20.1868 38.5928 19.0284C40.1018 18.0971 42.5607 16.7114 42.6054 16.7569ZM43.4548 16.8931C43.5555 16.8931 45.5898 17.4611 46.6514 17.7791C49.2782 18.5742 52.2959 19.6985 54.2631 20.6071L55.079 20.9821L54.5091 21.1182C49.703 22.2426 45.5898 23.5375 41.6218 25.173C41.2976 25.3092 41.007 25.4228 40.9849 25.4228C40.9624 25.4228 41.0742 25.1617 41.2195 24.8435C42.4155 22.2654 43.1867 19.5736 43.3765 17.2792C43.3879 17.0634 43.4212 16.8931 43.4548 16.8931ZM23.2019 21.618C23.2353 21.5838 24.789 21.9587 25.6273 22.197C26.9015 22.5606 29.6063 23.4805 29.6063 23.5487C29.6063 23.56 29.3046 23.8213 28.9471 24.1394C27.4828 25.3774 26.0744 26.6833 24.3865 28.3416C23.8835 28.8302 23.4589 29.2277 23.4367 29.2277C23.4142 29.2277 23.4032 29.1594 23.4142 29.0685C23.6712 27.1604 23.6155 24.7072 23.2578 22.2199C23.2242 21.9018 23.1907 21.6293 23.2019 21.618ZM55.8505 21.6521C55.8726 21.6747 55.135 22.8559 54.6656 23.5259C53.9951 24.5027 53.0112 25.7977 50.787 28.6371C49.6136 30.1361 48.2945 31.8286 47.8588 32.3964C47.4115 32.9643 47.0428 33.4412 47.0315 33.4412C47.0203 33.4412 46.8752 33.2369 46.7186 32.9871C45.4667 31.0789 43.9689 29.4093 42.1917 27.9101C41.8564 27.6261 41.4878 27.3194 41.3648 27.2286C41.2418 27.1378 41.1411 27.0469 41.1411 27.0356C41.1411 27.0016 43.0411 26.1723 44.4832 25.5818C47.0093 24.5368 50.4515 23.2875 53.0337 22.4811C54.3861 22.0496 55.828 21.6293 55.8505 21.6521ZM56.711 21.8791C56.7556 21.8679 57.024 22.0041 57.3482 22.197C60.0643 23.7758 62.7243 25.8089 64.8258 27.8988C65.4181 28.4894 66.8823 30.0341 66.8598 30.0454C66.8598 30.0454 66.3457 30.0908 65.7422 30.1361C61.0366 30.4997 55.0123 31.5104 49.2224 32.9301C48.8312 33.0208 48.4848 33.1004 48.4623 33.1004C48.4402 33.1004 48.8759 32.6575 49.4237 32.1238C52.8215 28.796 54.3753 26.6948 56.2081 22.9467C56.4651 22.3903 56.6888 21.9133 56.711 21.8791C56.6999 21.8791 56.6999 21.8791 56.711 21.8791ZM31.8194 24.4688C31.976 24.5027 33.429 25.1958 34.5243 25.7522C35.5303 26.2631 37.0393 27.081 37.1175 27.1491C37.1286 27.1604 36.592 27.4444 35.9328 27.7738C33.8314 28.8414 32.0319 29.8521 30.154 31.0106C29.6176 31.3401 29.1705 31.6128 29.1594 31.6128C29.1146 31.6128 29.1258 31.5671 29.4276 31.0106C30.4336 29.1482 31.2382 26.922 31.6966 24.7526C31.7412 24.5823 31.786 24.4688 31.8194 24.4688ZM30.3663 24.7413C30.3999 24.7754 30.0199 26.1723 29.7853 26.9333C29.3269 28.3758 28.5557 30.1816 27.8069 31.5446C27.6279 31.8624 27.3597 32.3281 27.2144 32.5893L26.935 33.0436L26.3091 32.4305C25.5827 31.7149 24.9902 31.2719 24.2303 30.8743C23.9283 30.7155 23.6937 30.579 23.6937 30.5565C23.6937 30.4656 25.6049 28.7052 27.0692 27.4331C28.1197 26.5131 30.3329 24.7073 30.3663 24.7413ZM39.2524 28.4553L39.8002 28.8187C41.0517 29.6479 42.5271 30.7495 43.6562 31.7149C44.2931 32.2486 45.5225 33.3732 45.7687 33.6457L45.9026 33.7935L44.9974 34.0547C39.8782 35.497 35.9215 36.7804 31.3053 38.5069C30.7911 38.6999 30.3552 38.8589 30.3216 38.8589C30.2547 38.8589 30.1987 38.9156 31.3501 37.8366C34.3009 35.0769 36.9162 32.0328 38.8611 29.0685L39.2524 28.4553ZM36.9163 29.0459C36.9386 29.0685 35.4074 31.2605 34.4907 32.4986C33.3954 33.9751 31.4505 36.451 30.1093 38.0637C29.5506 38.7339 29.07 39.2904 29.0476 39.3018C29.014 39.3131 29.0028 39.1428 29.0028 38.8816C29.0028 37.5071 28.6564 36.042 28.0527 34.7928C27.7956 34.2703 27.7509 34.1454 27.807 34.0887C28.0193 33.8955 31.2718 32.0101 33.3284 30.8858C34.7143 30.1362 36.8825 29.0232 36.9163 29.0459ZM22.7882 32.5668C22.8218 32.5668 23.0789 32.703 23.3696 32.8621C24.0849 33.2596 24.722 33.7025 25.292 34.1796C25.3142 34.2023 25.0238 34.4409 24.6437 34.7246C23.5819 35.497 21.9724 36.735 21.0337 37.496C20.0498 38.2911 20.0165 38.3138 20.1282 38.1434C20.8659 36.9963 21.2346 36.3489 21.626 35.5198C21.9724 34.7817 22.3188 33.9071 22.5647 33.1461C22.6541 32.8167 22.7659 32.5668 22.7882 32.5668ZM26.5551 35.5651C26.6108 35.5539 26.6781 35.656 26.9797 36.1104C27.6168 37.0756 28.1086 38.3706 28.2317 39.4155L28.2539 39.6427L26.7228 40.2447C23.9842 41.3236 21.4583 42.3913 19.748 43.1862C19.2675 43.4134 18.4292 43.8222 17.8816 44.095C17.3338 44.3788 16.8868 44.5946 16.8868 44.5833C16.8868 44.572 17.2332 44.3107 17.6579 43.9926C21.0001 41.5281 23.8949 38.8248 26.0632 36.1218C26.298 35.8378 26.5104 35.5765 26.5326 35.5652L26.5551 35.5651ZM24.8226 35.9968C24.8674 36.0422 23.5932 37.5073 22.7214 38.4045C20.5642 40.6421 18.4293 42.3913 15.7802 44.095C15.4449 44.3107 15.1432 44.5037 15.1096 44.5266C15.0313 44.572 15.1319 44.4583 16.2943 43.1749C17.0321 42.3685 17.5909 41.687 18.228 40.8467C18.6527 40.2902 18.731 40.2107 19.3459 39.7675C20.9889 38.5636 24.7779 35.9513 24.8226 35.9968Z" fill="#CC2927"/>
</svg>
