<svg width="75" height="75" viewBox="0 0 75 75" fill="none" xmlns="http://www.w3.org/2000/svg">
<path d="M37.5 5.78125C36.6562 5.78125 35.7813 6 35.0625 6.40625L11.8125 19.8438C10.3125 20.7188 9.375 22.3438 9.375 24.0938V50.9063C9.375 52.6563 10.3125 54.2812 11.8125 55.1562L17.9063 58.6563C20.875 60.0938 21.875 60.125 23.25 60.125C27.625 60.125 30.1562 57.4687 30.1562 52.8437V26.375C30.1562 26 29.8438 25.6875 29.4688 25.6875H26.5625C26.1563 25.6875 25.8438 26 25.8438 26.375V52.8437C25.8438 54.9062 23.7188 56.9375 20.3125 55.2187L13.9062 51.5625C13.801 51.4882 13.715 51.3899 13.6552 51.2758C13.5955 51.1617 13.5637 51.0351 13.5625 50.9063V24.0938C13.5625 23.8125 13.6875 23.5625 13.9062 23.4375L37.1563 10.0313C37.3438 9.90625 37.6562 9.90625 37.8437 10.0313L61.0937 23.4375C61.3125 23.5625 61.4375 23.8125 61.4375 24.0938V50.9063C61.4375 51.1563 61.3125 51.4062 61.0937 51.5625L37.8437 64.9688C37.6562 65.0938 37.3438 65.0938 37.125 64.9688L31.25 61.4062C31 61.3125 30.75 61.2812 30.5937 61.375C28.9375 62.3125 28.625 62.5 27.0938 62.9687C26.7188 63.0937 26.125 63.3125 27.3125 63.9687L35.0625 68.5625C35.8125 69 36.625 69.2187 37.5 69.2187C38.375 69.2187 39.1875 69 39.9375 68.5625L63.1875 55.1562C64.6875 54.2812 65.625 52.6563 65.625 50.9063V24.0938C65.625 22.3438 64.6875 20.7188 63.1875 19.8438L39.9375 6.40625C39.2187 6 38.375 5.78125 37.5 5.78125ZM43.75 25C37.125 25 33.1562 27.7812 33.1562 32.4687C33.1562 37.5 37.0937 38.9687 43.4687 39.5937C51.0625 40.3437 51.6563 41.4687 51.6563 42.9687C51.6563 45.5625 49.5625 46.6562 44.6875 46.6562C38.5 46.6562 37.1875 45.125 36.7188 42.0625C36.6858 41.9042 36.5996 41.762 36.4745 41.6596C36.3494 41.5573 36.1929 41.5009 36.0312 41.5H33.0312C32.6562 41.5 32.375 41.7812 32.375 42.1875C32.375 46.0625 34.5 50.75 44.6875 50.75C52.0313 50.75 56.25 47.8437 56.25 42.7812C56.25 37.75 52.875 36.4375 45.7188 35.4688C38.5 34.5312 37.7813 34.0313 37.7813 32.3438C37.7813 30.9375 38.4062 29.0625 43.75 29.0625C48.4375 29.0625 50.2812 30.0937 51 33.3125C51.0625 33.625 51.3438 33.8437 51.6563 33.8437H54.6875C54.8438 33.8437 55.0312 33.7812 55.1562 33.625C55.2812 33.5 55.375 33.3125 55.3125 33.125C54.875 27.5625 51.1875 25 43.75 25Z" fill="#80CB28"/>
</svg>
