<svg width="75" height="50" viewBox="0 0 75 50" fill="none" xmlns="http://www.w3.org/2000/svg">
<g clip-path="url(#clip0_314_8250)">
<path d="M42.0748 48.9262H69.9509C70.8364 48.9262 71.706 48.7003 72.4729 48.2709C73.2348 47.8462 73.8715 47.2285 74.3189 46.4797C74.7604 45.74 74.9936 44.8947 74.9938 44.0332C74.9938 43.1744 74.7597 42.3311 74.3165 41.5873L55.596 10.135C55.1485 9.3866 54.512 8.76907 53.7503 8.34442C52.9798 7.91363 52.1116 7.6879 51.2289 7.68886C50.3434 7.68886 49.474 7.915 48.7071 8.34442C47.9455 8.769 47.3091 9.38655 46.8617 10.135L42.0748 18.1824L32.716 2.44559C32.2679 1.69741 31.6311 1.08004 30.8695 0.655264C30.0986 0.224971 29.2303 -0.000623379 28.3474 1.29377e-06C27.4622 1.29377e-06 26.5922 0.226136 25.8254 0.655264C25.0638 1.08008 24.4271 1.69745 23.9791 2.44559L0.682871 41.5873C0.240816 42.3267 0.00700838 43.1718 0.00622559 44.0332C0.00622559 44.8921 0.238511 45.736 0.681113 46.4797C1.12852 47.2285 1.76519 47.8462 2.5271 48.2709C3.2978 48.7017 4.16622 48.9273 5.04914 48.9262H22.5473C29.4804 48.9262 34.5931 45.9723 38.1113 40.2094L46.6526 25.8613L51.2274 18.1824L64.9577 41.2475H46.6526L42.0748 48.9262ZM22.2617 41.2399L10.0505 41.237L28.3556 10.4854L37.4892 25.8613L31.3739 36.1381C29.0375 39.8773 26.3834 41.2396 22.262 41.2396" fill="#00DC82"/>
</g>
<defs>
<clipPath id="clip0_314_8250">
<rect width="75" height="49.2106" fill="white"/>
</clipPath>
</defs>
</svg>
