<svg width="75" height="75" viewBox="0 0 75 75" fill="none" xmlns="http://www.w3.org/2000/svg">
<path fill-rule="evenodd" clip-rule="evenodd" d="M28.929 13.4547C22.0063 14.7767 15.4383 19.6953 11.9925 26.1379C10.1885 29.5109 9.09743 34.6926 9.31477 38.8546L9.46281 41.6956H8.18534C6.62593 41.6956 5.71922 42.7826 6.07821 44.221C6.40085 45.5136 7.36779 45.7541 12.2448 45.7541C15.983 45.7541 16.6172 45.8349 17.1014 46.3727C18.362 47.7728 17.3678 49.8126 15.4249 49.8126C14.0539 49.8126 13.313 50.4555 13.2225 51.7235C13.0728 53.8187 13.2686 53.8711 21.2319 53.8711C27.9758 53.8711 28.4664 53.9134 29.0972 54.5475C29.9575 55.4123 29.9575 56.7266 29.0972 57.5914C28.4822 58.2097 27.9758 58.2678 23.2212 58.2678C18.4216 58.2678 17.9913 58.3186 17.67 58.9219C17.1811 59.8402 17.2366 61.1582 17.7837 61.6144C18.1174 61.8928 23.5146 61.9997 37.2132 62C54.7138 62 56.2133 61.9554 56.6013 61.422C57.2038 60.5941 57.12 59.4766 56.4065 58.8276C55.8735 58.3426 54.806 58.2678 48.4069 58.2678C40.044 58.2678 39.5269 58.14 39.5269 56.0695C39.5269 54.5019 40.4988 53.8711 42.9141 53.8711C44.3195 53.8711 44.9489 53.7122 45.3624 53.2525C46.6237 51.8513 45.4893 49.8126 43.4481 49.8126C41.4688 49.8126 40.4326 47.5801 41.8244 46.3138C42.3705 45.817 43.6765 45.7541 53.4468 45.7541H64.4541L65.2798 44.9238C66.2423 43.9565 66.3005 43.4786 65.5819 42.4474C65.0987 41.7534 64.7922 41.6956 61.6048 41.6956H58.1509L58.125 37.5525C58.1014 33.8565 57.985 33.0654 57.0457 30.2204C55.5717 25.7554 54.3108 23.7014 50.9908 20.3575C46.7852 16.1218 42.6961 14.0178 37.2488 13.2869C34.0631 12.8594 31.8086 12.9051 28.929 13.4547ZM49.6951 50.3392C48.7716 50.9892 48.703 52.5294 49.5626 53.3114C50.4259 54.097 56.0576 54.1241 56.7002 53.3459C57.3475 52.5619 57.2381 50.8079 56.5091 50.2719C55.5973 49.6019 50.6728 49.6506 49.6951 50.3392ZM61.4706 50.3392C60.5824 50.9642 60.4666 52.5507 61.2512 53.3398C61.657 53.7473 62.5162 53.8711 64.9443 53.8711C67.9316 53.8711 68.1392 53.8248 68.6492 53.0422C69.2306 52.1503 69.0846 51.1644 68.2465 50.3219C67.5252 49.5968 62.5068 49.6093 61.4706 50.3392Z" fill="#EC533A"/>
</svg>
