<svg width="75" height="75" viewBox="0 0 75 75" fill="none" xmlns="http://www.w3.org/2000/svg">
<path d="M21.875 13.541L19.7916 18.7493L25 20.8327L27.0833 30.2077L21.875 35.416L23.9583 38.541L20.8333 40.6243V41.666L26.0416 48.9577L30.2083 46.8743M35.9375 58.3327L37.5 55.2077L40.625 53.1243L47.9166 57.291L53.125 56.2493V52.0827L51.0416 49.9993L52.6041 46.3535" stroke="black" stroke-width="0.888889" stroke-linecap="round" stroke-linejoin="round"/>
<path fill-rule="evenodd" clip-rule="evenodd" d="M26.0417 13.5417L12.5 12.5V25L13.5385 36.5L12.5 48.9583V61.4583L26.0417 62.5L37.5 61.4583L50 62.5L62.5 61.4583V48.9583L61.4615 36.5L62.5 25V12.5L50 13.5417L37.5 12.5L26.0417 13.5417Z" fill="#B1CC33"/>
<path d="M12.5 12.5006L12.5802 11.4621C12.4371 11.451 12.2933 11.4697 12.1577 11.5169C12.0221 11.564 11.8978 11.6387 11.7924 11.7362C11.6871 11.8338 11.603 11.952 11.5455 12.0835C11.4881 12.2151 11.4584 12.3571 11.4584 12.5006H12.5ZM26.0417 13.5423L25.9615 14.5808C26.0198 14.585 26.0782 14.5846 26.1365 14.5798L26.0417 13.5423ZM12.5 25.0006H11.4584C11.4584 25.0319 11.4597 25.0632 11.4625 25.0944L12.5 25.0006ZM13.5386 36.5006L14.5761 36.5871C14.5813 36.5271 14.5813 36.4668 14.5761 36.4069L13.5386 36.5006ZM12.5 48.959L11.4625 48.8725L11.4584 48.959H12.5ZM12.5 61.459H11.4584C11.4584 61.7213 11.5574 61.974 11.7357 62.1666C11.9139 62.3591 12.1582 62.4773 12.4198 62.4975L12.5 61.459ZM26.0417 62.5006L25.9615 63.5392C26.0198 63.5433 26.0782 63.543 26.1365 63.5381L26.0417 62.5006ZM37.5 61.459L37.5865 60.4215C37.5265 60.4163 37.4662 60.4163 37.4063 60.4215L37.5 61.459ZM50 62.5006L49.9136 63.5381C49.9705 63.5437 50.0282 63.5437 50.0865 63.5381L50 62.5006ZM62.5 61.459L62.5865 62.4965C62.8468 62.4748 63.0895 62.3561 63.2664 62.1639C63.4433 61.9718 63.5416 61.7202 63.5417 61.459H62.5ZM62.5 48.959H63.5417L63.5375 48.8725L62.5 48.959ZM61.4615 36.5006L60.424 36.4069C60.4188 36.4668 60.4188 36.5271 60.424 36.5871L61.4615 36.5006ZM62.5 25.0006L63.5375 25.0944C63.5403 25.0632 63.5417 25.0319 63.5417 25.0006H62.5ZM62.5 12.5006H63.5417C63.5416 12.3566 63.5117 12.2141 63.4538 12.0823C63.3958 11.9504 63.3112 11.832 63.2052 11.7345C63.0992 11.637 62.9741 11.5625 62.8378 11.5158C62.7016 11.4691 62.5571 11.4512 62.4136 11.4631L62.5 12.5006ZM50 13.5423L49.9136 14.5798C49.9705 14.5853 50.0282 14.5853 50.0865 14.5798L50 13.5423ZM37.5 12.5006L37.5865 11.4631C37.5265 11.4579 37.4662 11.4579 37.4063 11.4631L37.5 12.5006ZM12.4198 13.5392L25.9615 14.5808L26.1219 12.5037L12.5802 11.4621L12.4198 13.5392ZM13.5417 25.0006V12.5006H11.4584V25.0006H13.5417ZM14.5761 36.4069L13.5375 24.9069L11.4625 25.0944L12.5011 36.5944L14.5761 36.4069ZM13.5375 49.0454L14.5761 36.5871L12.5 36.4142L11.4625 48.8725L13.5375 49.0454ZM13.5417 61.459V48.959H11.4584V61.459H13.5417ZM26.1219 61.4621L12.5802 60.4204L12.4198 62.4975L25.9615 63.5392L26.1219 61.4621ZM37.4063 60.4215L25.948 61.4631L26.1365 63.5381L37.5938 62.4965L37.4063 60.4215ZM50.0865 61.4631L37.5865 60.4215L37.4136 62.4965L49.9136 63.5381L50.0865 61.4631ZM62.4136 60.4215L49.9136 61.4631L50.0865 63.5381L62.5865 62.4965L62.4136 60.4215ZM61.4584 48.959V61.459H63.5417V48.959H61.4584ZM60.424 36.5871L61.4625 49.0454L63.5375 48.8725L62.5 36.4142L60.424 36.5871ZM61.4625 24.9069L60.424 36.4069L62.499 36.5944L63.5375 25.0944L61.4625 24.9069ZM61.4584 12.5006V25.0006H63.5417V12.5006H61.4584ZM50.0865 14.5798L62.5865 13.5381L62.4136 11.4631L49.9136 12.5048L50.0865 14.5798ZM37.4136 13.5381L49.9136 14.5798L50.0865 12.5048L37.5865 11.4631L37.4136 13.5381ZM26.1365 14.5798L37.5938 13.5381L37.4063 11.4631L25.948 12.5048L26.1365 14.5798Z" fill="#B1CC33"/>
<path d="M21.875 13.541L19.7916 18.7493L25 20.8327L27.0833 30.2077L21.875 35.416L23.9583 38.541L20.8333 40.6244V41.666L26.0416 48.9577L30.2083 46.8744L34.375 53.1244L32.2916 59.3744L34.375 61.4577L37.5 55.2077L40.625 53.1244L47.9166 57.291L53.125 56.2494V52.0827L51.0416 49.9994L54.1666 42.7077L62.5 41.666" stroke="#EA5A47" stroke-width="0.888889" stroke-linejoin="round"/>
<path fill-rule="evenodd" clip-rule="evenodd" d="M16.6667 51.0417C17.2847 51.0417 17.8889 50.8584 18.4028 50.515C18.9167 50.1716 19.3173 49.6836 19.5538 49.1126C19.7903 48.5415 19.8522 47.9132 19.7316 47.307C19.611 46.7008 19.3134 46.144 18.8764 45.707C18.4393 45.2699 17.8825 44.9723 17.2763 44.8517C16.6701 44.7311 16.0418 44.793 15.4708 45.0295C14.8998 45.2661 14.4117 45.6666 14.0683 46.1805C13.7249 46.6944 13.5417 47.2986 13.5417 47.9167V56.25C13.1468 56.5461 12.7961 56.8968 12.5 57.2917V61.4583H21.7708C21.8403 61.1215 21.875 60.7743 21.875 60.4167C21.875 59.0353 21.3263 57.7106 20.3495 56.7338C19.3728 55.7571 18.048 55.2083 16.6667 55.2083C16.1141 55.2083 15.5842 54.9888 15.1935 54.5981C14.8028 54.2074 14.5833 53.6775 14.5833 53.125C14.5833 52.5725 14.8028 52.0426 15.1935 51.6519C15.5842 51.2612 16.1141 51.0417 16.6667 51.0417ZM59.6354 56.1458C59.1101 56.1458 58.5965 56.3016 58.1597 56.5935C57.7229 56.8854 57.3824 57.3002 57.1814 57.7856C56.9803 58.2709 56.9277 58.805 57.0302 59.3203C57.1327 59.8356 57.3857 60.3089 57.7572 60.6803C58.1286 61.0518 58.6019 61.3048 59.1172 61.4073C59.6325 61.5098 60.1666 61.4572 60.6519 61.2561C61.1373 61.0551 61.5521 60.7146 61.844 60.2778C62.1359 59.841 62.2917 59.3274 62.2917 58.8021V51.7188C62.6271 51.4677 62.925 51.1688 63.1771 50.8333V45.5208C62.7243 44.9171 62.1247 44.4392 61.4353 44.1324C60.7458 43.8256 59.9894 43.7001 59.2378 43.7679C58.4863 43.8357 57.7645 44.0944 57.141 44.5196C56.5176 44.9448 56.0132 45.5223 55.6757 46.1972C55.3382 46.8722 55.1789 47.6222 55.2128 48.3761C55.2467 49.1299 55.4728 49.8626 55.8695 50.5045C56.2662 51.1465 56.8205 51.6763 57.4796 52.0438C58.1387 52.4113 58.8808 52.6042 59.6354 52.6042C60.1051 52.6042 60.5555 52.7907 60.8876 53.1228C61.2197 53.4549 61.4062 53.9053 61.4062 54.375C61.4062 54.8447 61.2197 55.2951 60.8876 55.6272C60.5555 55.9593 60.1051 56.1458 59.6354 56.1458Z" fill="#5C9E31"/>
<path fill-rule="evenodd" clip-rule="evenodd" d="M50.9041 41.5276C50.268 41.62 49.6194 41.6661 48.9583 41.6661C41.4791 41.6661 35.4166 35.6036 35.4166 28.1245C35.4166 27.4634 35.4628 26.8151 35.5552 26.1797C33.6372 27.126 32.0223 28.5901 30.8933 30.4066C29.7643 32.223 29.1662 34.3191 29.1666 36.4578C29.1666 42.7859 34.2968 47.9161 40.625 47.9161C42.7638 47.9168 44.8602 47.3188 46.6768 46.1897C48.4934 45.0607 49.9578 43.4457 50.9041 41.5276Z" fill="#92D3F5"/>
<path fill-rule="evenodd" clip-rule="evenodd" d="M32.8125 19.7917C33.6614 19.7917 34.4943 19.5613 35.2225 19.1249C35.9506 18.6886 36.5466 18.0627 36.9467 17.314C37.3469 16.5654 37.5363 15.7222 37.4947 14.8743C37.4531 14.0265 37.182 13.2058 36.7104 12.5H28.9146C28.443 13.2058 28.1719 14.0265 28.1303 14.8743C28.0886 15.7222 28.278 16.5654 28.6782 17.314C29.0784 18.0627 29.6744 18.6886 30.4025 19.1249C31.1307 19.5613 31.9636 19.7917 32.8125 19.7917Z" fill="#5C9E31"/>
<path d="M59.0698 34.8186C62.525 29.403 60.9354 22.2123 55.5208 18.7571C50.1062 15.3019 42.9166 16.8905 39.4604 22.3061C36.0041 27.7217 37.5937 34.9113 43.0083 38.3665C48.4229 41.8217 55.6146 40.2332 59.0698 34.8186Z" fill="#B1CC33"/>
<path fill-rule="evenodd" clip-rule="evenodd" d="M53.0968 15.2277C52.9359 17.0431 52.101 18.7324 50.7566 19.9629C49.4122 21.1933 47.6558 21.8757 45.8333 21.8757C44.7282 21.8757 43.6684 22.3146 42.887 23.096C42.1056 23.8774 41.6666 24.9373 41.6666 26.0423C41.6666 27.1474 42.1056 28.2072 42.887 28.9886C43.6684 29.77 44.7282 30.209 45.8333 30.209C47.1298 30.2088 48.4029 30.5543 49.5214 31.2099C50.64 31.8654 51.5635 32.8074 52.1968 33.9387C52.8302 35.0699 53.1504 36.3496 53.1246 37.6458C53.0988 38.9421 52.7278 40.208 52.05 41.3132C51.0572 41.5444 50.0218 41.6673 48.9583 41.6673C44.7708 41.6673 41.026 39.7663 38.5416 36.7788V19.4725C39.811 17.9411 41.4028 16.7089 43.2035 15.8639C45.0042 15.0188 46.9692 14.5818 48.9583 14.584C50.402 14.584 51.7916 14.81 53.0968 15.2277Z" fill="#92D3F5"/>
<path d="M59.1292 35.1983C60.65 32.8129 61.5084 28.4118 60.898 25.6493C60.4803 23.7566 58.1323 21.6493 56.8365 20.2754C57.5125 22.7275 57.9188 27.9316 54.5605 32.7462C51.7105 36.8296 47.5917 38.616 45.2396 39.0556C49.6667 40.3921 56.5219 39.2827 59.1292 35.1983Z" fill="#5C9E31"/>
<path fill-rule="evenodd" clip-rule="evenodd" d="M52.6761 34.9746C53.1666 36.3088 53.2582 37.7569 52.9396 39.1423C50.3261 39.7819 47.474 39.7309 45.2396 39.0559C47.1094 38.7059 50.0969 37.5059 52.6761 34.9746Z" fill="#61B2E4"/>
<path d="M57.3969 15.8168C55.7254 14.7445 53.8579 14.0142 51.9025 13.6678C49.947 13.3215 47.9423 13.3661 46.0042 13.7991C44.0636 14.2223 42.2263 15.0263 40.5985 16.1643C38.9707 17.3024 37.5847 18.752 36.5209 20.4293C32.0375 27.4563 34.1063 36.822 41.1334 41.3053C48.1594 45.7897 57.524 43.722 62.0104 36.6938C63.083 35.0225 63.8135 33.155 64.1597 31.1994C64.5058 29.2439 64.4608 27.2391 64.0271 25.3011C63.604 23.3604 62.8001 21.5228 61.662 19.8948C60.5239 18.2668 59.0743 16.8807 57.3969 15.8168ZM59.3094 34.9709C57.0406 38.5282 53.1834 40.472 49.2469 40.472C46.9819 40.4742 44.7639 39.8263 42.8563 38.6053C37.3177 35.0709 35.6875 27.6886 39.2209 22.1522C40.0593 20.8301 41.1517 19.6875 42.4348 18.7906C43.7179 17.8937 45.1662 17.2603 46.6959 16.9272C48.2234 16.5853 49.8035 16.5498 51.3448 16.8228C52.8861 17.0959 54.3579 17.672 55.675 18.5178C56.9969 19.356 58.1393 20.448 59.0362 21.7308C59.9331 23.0135 60.5666 24.4614 60.9 25.9907C61.2421 27.5184 61.2776 29.0987 61.0046 30.6402C60.7316 32.1817 60.1554 33.6537 59.3094 34.9709Z" fill="#D0CFCE"/>
<path d="M36.2157 42.9277L29.0094 53.6923L25.1438 59.7507C24.6459 60.5319 25.5396 63.0944 26.3209 63.5923C26.6959 63.8319 28.9584 63.6038 28.9584 63.6038L40.9625 45.6954L36.2157 42.9277Z" fill="#3F3F3F"/>
<path d="M44.2708 21.875H54.1667M41.6667 25H55.2083M40.625 28.125H54.1667" stroke="white" stroke-width="0.888889" stroke-linecap="round"/>
<path d="M66.1649 36.2557C71.4407 28.2103 69.0153 17.5277 60.747 12.394C52.4787 7.26154 41.5009 9.62198 36.2239 17.6661C30.9494 25.7115 33.3759 36.3941 41.643 41.5278C49.9113 46.6602 60.8879 44.2998 66.1649 36.2557Z" stroke="black" stroke-width="0.888889" stroke-miterlimit="10" stroke-linecap="round" stroke-linejoin="round"/>
<path d="M62.6151 34.0521C66.639 27.9152 64.7881 19.7657 58.4822 15.8496C52.1738 11.9347 43.8001 13.7354 39.775 19.8723C35.7499 26.0092 37.6032 34.1574 43.9092 38.0735C50.2175 41.9896 58.59 40.189 62.6151 34.0521ZM35.8356 44.0683L41.1812 47.3867L28.4468 66.8055C27.5367 68.1933 25.6026 68.5743 24.1277 67.658C22.6517 66.7418 22.1924 64.875 23.1012 63.4872L35.8356 44.0683Z" stroke="black" stroke-width="0.888889" stroke-miterlimit="10" stroke-linecap="round" stroke-linejoin="round"/>
<path d="M42.2334 8.4079L37.3336 8L23.8594 9.22493L7.9353 8V22.6992L9.15656 36.2224L7.9353 50.8726V65.5718L18.9597 66.4194M59.7082 8.58552L66.732 8V13.5122M65.9664 41.6856L66.732 50.8726V65.5718L52.0328 66.7967L37.3336 65.5718L33.0464 65.9613" stroke="black" stroke-width="0.888889" stroke-linecap="round" stroke-linejoin="round"/>
</svg>
