<svg width="75" height="75" viewBox="0 0 75 75" fill="none" xmlns="http://www.w3.org/2000/svg">
<path d="M37.5 17.7727C16.7895 17.7727 0 26.6057 0 37.5C0 48.3944 16.7895 57.2274 37.5 57.2274C58.21 57.2274 75 48.3944 75 37.5C75 26.6057 58.2105 17.7727 37.5 17.7727ZM33.9949 23.5208H38.2682V23.5225L37.2457 28.7772H41.052C43.4473 28.7772 45.0992 29.195 46.0078 30.0305C46.9172 30.8665 47.1902 32.22 46.827 34.0911L45.0381 43.2903H40.6975L42.3979 34.5428C42.5912 33.5483 42.5199 32.87 42.184 32.5079C41.848 32.1465 41.1336 31.9659 40.0406 31.9659H36.6258L34.425 43.2891H30.1529L33.9949 23.5208ZM15.6621 28.7778H23.9432C26.435 28.7778 28.2523 29.4317 29.3953 30.7395C30.5379 32.0469 30.8812 33.8723 30.4254 36.2157C30.2375 37.1813 29.9201 38.0641 29.4732 38.8641C29.0264 39.6641 28.4424 40.3956 27.7213 41.0584C26.8611 41.8631 25.9059 42.4366 24.8555 42.7788C23.8043 43.1209 22.4648 43.2918 20.8371 43.2915H17.1492L16.1268 48.5473H11.8201L15.6621 28.7778ZM49.275 28.7778H57.5543C60.0457 28.7778 61.8627 29.4317 63.0053 30.7395H63.0064C64.1494 32.0469 64.4932 33.8723 64.0377 36.2157C63.8502 37.1813 63.5332 38.0641 63.0867 38.8641C62.6402 39.6641 62.0559 40.3956 61.3336 41.0584C60.4742 41.8631 59.5186 42.4366 58.4666 42.7788C57.4158 43.1209 56.077 43.2918 54.45 43.2915H50.7615L49.7396 48.5473H45.433L49.275 28.7778ZM19.3623 31.8979L17.7557 40.1713H20.3736C22.1104 40.1717 23.4037 39.845 24.2537 39.1911C25.1029 38.5368 25.6766 37.4446 25.9746 35.9145C26.259 34.445 26.1289 33.4081 25.5844 32.8038C25.0398 32.1995 23.9492 31.8973 22.3125 31.8973L19.3623 31.8979ZM52.9734 31.8979L51.3656 40.1713H53.9848C55.7215 40.1717 57.0148 39.845 57.8648 39.1911C58.7137 38.5368 59.2869 37.4446 59.5846 35.9145C59.8697 34.445 59.74 33.4081 59.1955 32.8038C58.651 32.1995 57.5604 31.8973 55.9236 31.8973L52.9734 31.8979Z" fill="#787CB4"/>
</svg>
