<svg width="58" height="75" viewBox="0 0 58 75" fill="none" xmlns="http://www.w3.org/2000/svg">
<g clip-path="url(#clip0_41_100)">
<path d="M26.9378 36.7881C31.9433 32.019 30.4158 26.1208 25.8825 18.9732C21.349 11.8258 12.2233 9.283 10.5208 10.905C8.81826 12.527 8.44116 24.124 12.9745 31.2716C17.508 38.419 21.9321 41.5572 26.9378 36.7881Z" fill="#52CE63"/>
<path d="M31.266 37.448C34.969 43.2866 39.9197 41.1517 46.0476 35.3134C52.1755 29.4748 54.7166 18.291 53.457 16.3054C52.1975 14.3197 42.6261 14.4191 36.4983 20.2576C30.3705 26.0961 27.5629 31.6096 31.266 37.448Z" fill="#52CE63"/>
<path d="M29.2411 34.2362C35.39 34.9912 37.8081 29.3106 38.9355 20.1283C40.063 10.946 35.4153 1.24058 33.3239 0.9838C31.2326 0.727018 24.2066 8.99881 23.0791 18.1814C21.9517 27.3637 23.0921 33.4812 29.2411 34.2362Z" fill="#76F28D"/>
<path d="M27.6926 74.843C40.5844 74.843 51.0396 71.098 51.0396 54.1145C51.0396 37.131 40.5844 23.1941 27.6926 23.1941C14.8005 23.1941 4.35376 37.1307 4.35376 54.1145C4.35376 71.0983 14.8005 74.843 27.6926 74.843Z" fill="#FFE56C"/>
<path d="M39.4843 50.6469C41.326 50.6469 42.819 49.9525 42.819 49.0959C42.819 48.2393 41.326 47.5449 39.4843 47.5449C37.6426 47.5449 36.1497 48.2393 36.1497 49.0959C36.1497 49.9525 37.6426 50.6469 39.4843 50.6469Z" fill="#EAADCC"/>
<path d="M14.7892 49.7047C16.6172 49.9292 18.1836 49.4219 18.288 48.5717C18.3924 47.7215 16.9952 46.8503 15.1672 46.6259C13.3393 46.4014 11.7728 46.9087 11.6684 47.7589C11.564 48.6091 12.9612 49.4803 14.7892 49.7047Z" fill="#EAADCC"/>
<path d="M23.8135 47.6477C23.78 47.5955 23.7364 47.5506 23.6853 47.5156C23.6342 47.4805 23.5766 47.456 23.516 47.4435C23.4553 47.431 23.3927 47.4308 23.3319 47.4428C23.2711 47.4548 23.2134 47.4788 23.162 47.5134C23.1106 47.548 23.0666 47.5926 23.0327 47.6444C22.9987 47.6962 22.9755 47.7543 22.9643 47.8153C22.9531 47.8762 22.9542 47.9388 22.9675 47.9993C22.9808 48.0598 23.006 48.1171 23.0417 48.1677C23.7557 49.2272 24.8538 49.8422 26.2985 50.0073C27.7368 50.1716 29.0211 49.803 30.1226 48.9079C30.1717 48.87 30.2128 48.8226 30.2433 48.7685C30.2739 48.7145 30.2933 48.6548 30.3005 48.5932C30.3077 48.5315 30.3024 48.469 30.285 48.4094C30.2677 48.3497 30.2385 48.2942 30.1994 48.246C30.1602 48.1978 30.1118 48.1579 30.057 48.1287C30.0022 48.0995 29.9421 48.0816 29.8802 48.076C29.8184 48.0704 29.756 48.0772 29.6969 48.0961C29.6377 48.1149 29.5829 48.1454 29.5357 48.1858C28.6296 48.922 27.5954 49.2188 26.4043 49.0826C25.2192 48.9471 24.3682 48.4709 23.8135 47.6477ZM16.9144 40.4751C17.3521 40.4592 17.7887 40.53 18.199 40.6834C18.6093 40.8368 18.9852 41.0698 19.3051 41.369C19.6259 41.6672 19.8846 42.026 20.0662 42.4246C20.2479 42.8231 20.349 43.2537 20.3637 43.6915C20.3796 44.1292 20.3088 44.5657 20.1554 44.9759C20.0019 45.3862 19.769 45.762 19.4698 46.082C19.1716 46.4027 18.8128 46.6614 18.4143 46.8431C18.0157 47.0247 17.5851 47.1258 17.1473 47.1406C16.7096 47.1564 16.2731 47.0856 15.8628 46.9322C15.4525 46.7788 15.0766 46.5458 14.7566 46.2467C14.4359 45.9484 14.1774 45.5896 13.9958 45.191C13.8142 44.7925 13.7131 44.3619 13.6985 43.9242C13.6826 43.4865 13.7534 43.05 13.9067 42.6398C14.0601 42.2295 14.293 41.8536 14.5921 41.5337C14.8904 41.2129 15.2491 40.9543 15.6476 40.7726C16.0462 40.591 16.4767 40.4898 16.9144 40.4751Z" fill="#1F1F1F"/>
<path d="M17.0893 43.2626C17.085 43.1197 17.0524 42.979 16.9936 42.8486C16.9347 42.7183 16.8507 42.6008 16.7463 42.5031C16.6419 42.4053 16.5192 42.3291 16.3853 42.2789C16.2514 42.2286 16.1089 42.2054 15.9659 42.2104C15.823 42.2154 15.6825 42.2486 15.5524 42.3081C15.4223 42.3676 15.3053 42.4522 15.208 42.557C15.1108 42.6619 15.0352 42.7849 14.9856 42.9191C14.936 43.0532 14.9134 43.1958 14.9191 43.3387C14.9292 43.6266 15.0532 43.8986 15.2638 44.095C15.4745 44.2914 15.7546 44.396 16.0424 44.3859C16.3302 44.3758 16.6022 44.2518 16.7986 44.0411C16.995 43.8305 17.0996 43.5504 17.0895 43.2626" fill="#FAFAFA"/>
<path d="M37.1195 41.3215C37.5572 41.3056 37.9938 41.3764 38.4041 41.5297C38.8144 41.6831 39.1904 41.916 39.5104 42.2152C39.8311 42.5135 40.0897 42.8723 40.2713 43.2708C40.4529 43.6694 40.5539 44.1 40.5686 44.5377C40.5845 44.9754 40.5137 45.412 40.3603 45.8222C40.207 46.2325 39.974 46.6084 39.6749 46.9284C39.3766 47.2491 39.0178 47.5078 38.6193 47.6894C38.2207 47.871 37.7902 47.9721 37.3524 47.9868C36.9147 48.0026 36.4782 47.9318 36.0679 47.7784C35.6577 47.625 35.2818 47.392 34.9619 47.0929C34.6411 46.7946 34.3825 46.4359 34.2008 46.0373C34.0191 45.6387 33.918 45.2082 33.9033 44.7704C33.8875 44.3327 33.9583 43.8962 34.1117 43.486C34.2651 43.0757 34.498 42.6998 34.7972 42.3799C35.0955 42.0592 35.4542 41.8006 35.8528 41.6189C36.2514 41.4373 36.6817 41.3362 37.1195 41.3215Z" fill="#1F1F1F"/>
<path d="M16.8899 39.7777C19.1159 39.6999 20.9834 41.4412 21.0611 43.667C21.1389 45.8928 19.3975 47.7603 17.1716 47.838C14.9456 47.9157 13.0785 46.1744 13.0008 43.9484C12.9231 41.7227 14.6642 39.8554 16.8899 39.7777ZM19.6661 43.7157C19.6153 42.2604 18.3942 41.1218 16.9386 41.1727C15.4835 41.2235 14.3449 42.4443 14.3959 43.8997C14.4466 45.3553 15.6675 46.4937 17.1228 46.4429C18.5782 46.3922 19.7168 45.1713 19.6661 43.7157ZM37.0953 40.6239C39.3213 40.5462 41.1886 42.2875 41.2663 44.5133C41.344 46.7391 39.6027 48.6066 37.3769 48.6843C35.1512 48.762 33.2837 47.0207 33.2059 44.7949C33.1282 42.5692 34.8695 40.7017 37.0953 40.6239ZM39.8712 44.562C39.8204 43.1067 38.5996 41.9683 37.144 42.019C35.6884 42.0698 34.55 43.2909 34.601 44.7462C34.652 46.2016 35.8726 47.3402 37.328 47.2894C38.7836 47.2384 39.9219 46.0176 39.8712 44.562Z" fill="#FAFAFA"/>
<path d="M37.2947 44.109C37.2904 43.9659 37.258 43.8252 37.1992 43.6947C37.1404 43.5643 37.0564 43.4467 36.952 43.3489C36.8476 43.251 36.7249 43.1747 36.5909 43.1244C36.457 43.0742 36.3144 43.0508 36.1714 43.0558C36.0284 43.0608 35.8878 43.0941 35.7577 43.1536C35.6275 43.2131 35.5105 43.2978 35.4132 43.4027C35.3159 43.5076 35.2403 43.6307 35.1907 43.765C35.1412 43.8992 35.1186 44.0419 35.1244 44.1849C35.136 44.4716 35.2606 44.742 35.471 44.9371C35.6814 45.1323 35.9605 45.2361 36.2473 45.2261C36.5341 45.2161 36.8052 45.0929 37.0015 44.8836C37.1977 44.6743 37.3031 44.3958 37.2947 44.109Z" fill="#FAFAFA"/>
<path d="M10.63 55.0967L15.6897 60.3615L19.32 56.4995C19.4758 56.3382 19.6889 56.2447 19.9131 56.2392C20.1373 56.2338 20.3547 56.3169 20.5181 56.4705C20.6815 56.6241 20.7779 56.8359 20.7863 57.06C20.7947 57.2842 20.7145 57.5026 20.5631 57.668L16.8736 61.5934L22.1077 67.0396C22.1854 67.1204 22.2463 67.2157 22.2871 67.3201C22.3279 67.4244 22.3478 67.5358 22.3456 67.6478C22.3433 67.7598 22.3191 67.8703 22.2741 67.9729C22.2292 68.0756 22.1645 68.1683 22.0837 68.246C22.0029 68.3236 21.9076 68.3846 21.8033 68.4254C21.6989 68.4662 21.5876 68.486 21.4756 68.4838C21.3635 68.4816 21.2531 68.4573 21.1504 68.4124C21.0478 68.3675 20.955 68.3027 20.8774 68.222L15.7035 62.8381L13.2734 65.4234C13.1966 65.505 13.1046 65.5707 13.0024 65.6168C12.9003 65.6628 12.7901 65.6883 12.6781 65.6917C12.5661 65.6952 12.4546 65.6765 12.3498 65.6369C12.245 65.5972 12.1491 65.5373 12.0675 65.4606C11.9858 65.3838 11.9201 65.2918 11.8741 65.1896C11.8281 65.0875 11.8026 64.9773 11.7991 64.8653C11.7957 64.7533 11.8143 64.6418 11.854 64.537C11.8937 64.4322 11.9536 64.3363 12.0303 64.2547L14.5196 61.6063L9.39987 56.2791C9.32223 56.1983 9.26127 56.103 9.22047 55.9986C9.17966 55.8943 9.1598 55.7829 9.16203 55.6709C9.16426 55.5589 9.18854 55.4484 9.23347 55.3458C9.27839 55.2431 9.3431 55.1504 9.42389 55.0727C9.50467 54.9951 9.59996 54.9341 9.70431 54.8933C9.80865 54.8525 9.92001 54.8327 10.032 54.8349C10.1441 54.8371 10.2545 54.8614 10.3572 54.9063C10.4598 54.9512 10.5524 55.016 10.63 55.0967ZM44.6082 55.0967C44.765 54.9336 44.9801 54.8394 45.2063 54.835C45.3183 54.8327 45.4297 54.8526 45.534 54.8934C45.6384 54.9342 45.7336 54.9952 45.8144 55.0728C45.8952 55.1505 45.9599 55.2432 46.0048 55.3459C46.0497 55.4485 46.074 55.559 46.0762 55.671C46.0784 55.783 46.0585 55.8944 46.0177 55.9987C45.9769 56.103 45.9159 56.1983 45.8383 56.2791L40.7184 61.6063L43.2081 64.2547C43.3584 64.4146 43.4413 64.6263 43.4395 64.8458C43.4378 65.0653 43.3515 65.2757 43.1986 65.4331L43.1707 65.4606C43.0891 65.5373 42.9931 65.5972 42.8883 65.6368C42.7836 65.6765 42.672 65.6951 42.56 65.6916C42.448 65.6881 42.3378 65.6626 42.2357 65.6166C42.1336 65.5705 42.0415 65.5048 41.9648 65.4232L39.5347 62.8378L34.3608 68.222C34.2087 68.3802 34.0014 68.4738 33.7821 68.4832C33.5628 68.4925 33.3483 68.417 33.1833 68.2723L33.1545 68.246C33.0737 68.1683 33.009 68.0755 32.9641 67.9729C32.9192 67.8702 32.8949 67.7598 32.8927 67.6477C32.8905 67.5357 32.9104 67.4244 32.9512 67.32C32.992 67.2157 33.053 67.1204 33.1307 67.0396L38.3648 61.5934L34.6751 57.668C34.5248 57.5081 34.442 57.2964 34.4438 57.077C34.4455 56.8576 34.5318 56.6473 34.6846 56.4898L34.7125 56.4624C34.8773 56.3075 35.0969 56.2243 35.323 56.2313C35.5491 56.2383 35.7632 56.3348 35.9181 56.4995L39.5483 60.3615L44.6082 55.0967Z" fill="#ECB732"/>
<path d="M32.9529 28.7174C33.1128 28.8774 33.2026 29.0943 33.2026 29.3205C33.2026 29.5467 33.1128 29.7636 32.9529 29.9236L28.9809 33.8958L31.4017 36.3171C31.557 36.4723 31.6464 36.6814 31.6515 36.9008C31.6565 37.1202 31.5768 37.3332 31.4289 37.4954L31.4017 37.5237C31.2417 37.6837 31.0248 37.7735 30.7985 37.7735C30.5723 37.7735 30.3554 37.6837 30.1954 37.5237L27.7741 35.1024L25.3528 37.5237C25.2736 37.6032 25.1796 37.6663 25.076 37.7094C24.9724 37.7525 24.8613 37.7748 24.7491 37.7749C24.6369 37.775 24.5258 37.753 24.4221 37.7101C24.3185 37.6672 24.2243 37.6043 24.1449 37.525C24.0656 37.4456 24.0027 37.3514 23.9598 37.2477C23.917 37.1441 23.895 37.0329 23.8951 36.9207C23.8953 36.8085 23.9175 36.6975 23.9607 36.5939C24.0038 36.4903 24.0669 36.3963 24.1464 36.3171L26.5675 33.8958L22.5955 29.9238C22.4402 29.7686 22.3508 29.5595 22.3457 29.3401C22.3406 29.1207 22.4203 28.9077 22.5683 28.7455L22.5955 28.7172C22.7554 28.5573 22.9724 28.4674 23.1986 28.4674C23.4249 28.4674 23.6418 28.5573 23.8018 28.7172L27.7741 32.6893L31.7464 28.7172C31.8256 28.638 31.9196 28.5751 32.0231 28.5322C32.1267 28.4894 32.2376 28.4673 32.3496 28.4673C32.4617 28.4673 32.5726 28.4894 32.6761 28.5322C32.7797 28.5751 32.8737 28.6382 32.9529 28.7174Z" fill="#FFC73B"/>
</g>
<defs>
<clipPath id="clip0_41_100">
<rect width="58.0078" height="75" fill="white"/>
</clipPath>
</defs>
</svg>
