<svg width="75" height="75" viewBox="0 0 75 75" fill="none" xmlns="http://www.w3.org/2000/svg">
<path d="M41.6789 4.95482C33.0474 3.84651 24.3291 6.21246 17.4419 11.5322C10.5548 16.8519 6.06301 24.6897 4.9547 33.3212C3.84638 41.9528 6.21233 50.6711 11.5321 57.5582C16.8518 64.4453 24.6896 68.9371 33.3211 70.0454C41.9527 71.1538 50.671 68.7878 57.5581 63.4681C64.4452 58.1483 68.937 50.3106 70.0453 41.679C71.1536 33.0475 68.7877 24.3292 63.468 17.4421C58.1482 10.5549 50.3105 6.06314 41.6789 4.95482Z" fill="#FF6C37"/>
<path d="M28.4086 39.5734C28.4201 39.6007 28.4414 39.6226 28.4684 39.6348C28.4953 39.6469 28.5259 39.6485 28.5539 39.6391L33.8039 38.507L31.5938 36.2688L28.4485 39.4164C28.4229 39.4324 28.4045 39.4577 28.397 39.4869C28.3896 39.5162 28.3938 39.5472 28.4086 39.5734ZM52.9922 17.0313C52.2609 17.0325 51.5391 17.1977 50.8801 17.5147C50.221 17.8317 49.6415 18.2924 49.184 18.863C48.7265 19.4336 48.4028 20.0995 48.2367 20.8117C48.0706 21.5239 48.0664 22.2643 48.2242 22.9784C48.3821 23.6925 48.698 24.3621 49.1488 24.938C49.5997 25.5138 50.1739 25.9812 50.8292 26.3058C51.4846 26.6304 52.2044 26.804 52.9356 26.8136C53.6669 26.8233 54.391 26.6689 55.0547 26.3617L51.7266 23.0336C51.65 22.9567 51.607 22.8526 51.607 22.7441C51.607 22.6356 51.65 22.5316 51.7266 22.4547L56.0742 18.1094C55.1995 17.4098 54.1123 17.0295 52.9922 17.0313Z" fill="white"/>
<path d="M56.6719 18.6738L52.5961 22.7332L55.793 25.9301C56.356 25.5334 56.8295 25.0231 57.1829 24.432C57.5363 23.8408 57.7617 23.1821 57.8445 22.4984C57.9273 21.8148 57.8658 21.1213 57.6638 20.4629C57.4618 19.8045 57.1239 19.1934 56.6719 18.6738ZM48.518 26.1645H48.4477C48.362 26.1645 48.2765 26.1723 48.1922 26.1879H48.1641C48.0728 26.2083 47.9828 26.2341 47.8945 26.2652L47.8242 26.298C47.7603 26.328 47.6977 26.3609 47.6367 26.3965L47.5641 26.4434C47.4854 26.4996 47.4102 26.5607 47.3391 26.6262L35.2547 38.7152L36.7524 40.2105L49.5492 28.9793C49.6219 28.9159 49.6879 28.8452 49.7461 28.7684L49.8 28.698C49.8982 28.5495 49.9748 28.3877 50.0274 28.2176C50.0274 28.1801 50.0508 28.1402 50.0602 28.1004C50.0755 28.019 50.0864 27.9369 50.093 27.8543V27.5684C50.093 27.5098 50.093 27.491 50.0766 27.4512C50.016 27.1417 49.865 26.8571 49.6426 26.6335C49.4202 26.4099 49.1365 26.2572 48.8274 26.1949H48.7641C48.6826 26.1804 48.6005 26.1703 48.518 26.1645ZM32.161 35.6871L34.6406 38.1551L46.7578 26.0379C47.1539 25.6512 47.6672 25.4121 48.2156 25.3582C46.0735 23.7176 43.7391 24.1465 32.161 35.6871ZM50.2313 29.4527L50.0836 29.598L37.2867 40.8246L39.4617 42.9973C44.8571 37.8949 49.643 33.0363 50.2313 29.4527ZM18.3094 55.759C18.3161 55.7822 18.3299 55.8028 18.3488 55.8179C18.3676 55.833 18.3907 55.8419 18.4149 55.8434L23.993 56.2277L20.8664 53.1012L18.3352 55.6277C18.3184 55.6446 18.3072 55.6662 18.303 55.6897C18.2988 55.7131 18.3018 55.7373 18.3117 55.759H18.3094ZM21.45 52.5199L24.7477 55.8176C24.7877 55.858 24.84 55.8841 24.8964 55.8917C24.9527 55.8993 25.0101 55.8881 25.0594 55.8598C25.1108 55.8345 25.1518 55.7922 25.1753 55.74C25.1988 55.6878 25.2034 55.629 25.1883 55.5738L24.6328 53.2066C24.5957 53.0527 24.6116 52.8907 24.6779 52.747C24.7443 52.6032 24.8572 52.486 24.9985 52.4145C30.7781 49.5176 35.4422 46.534 38.8641 43.5551L36.5672 41.2582L31.6453 42.3176L21.45 52.5199ZM35.8617 40.5645L34.6289 39.3316L32.9227 41.0332C32.9103 41.048 32.9035 41.0666 32.9035 41.0859C32.9035 41.1052 32.9103 41.1239 32.9227 41.1387C32.9308 41.1556 32.9447 41.1692 32.9618 41.1769C32.979 41.1846 32.9983 41.186 33.0164 41.1809L35.8617 40.5645Z" fill="white"/>
<path d="M56.7867 21.3204C56.7708 21.2675 56.7435 21.2188 56.7069 21.1775C56.6703 21.1362 56.6252 21.1033 56.5746 21.0811C56.5241 21.0589 56.4694 21.0479 56.4142 21.0489C56.359 21.0499 56.3047 21.0628 56.2549 21.0868C56.2052 21.1108 56.1613 21.1453 56.1262 21.1879C56.0911 21.2305 56.0657 21.2802 56.0516 21.3336C56.0375 21.387 56.0352 21.4428 56.0448 21.4971C56.0544 21.5515 56.0756 21.6031 56.107 21.6485C56.2041 21.8459 56.2425 22.067 56.2176 22.2855C56.1926 22.5041 56.1055 22.7109 55.9664 22.8813C55.9021 22.959 55.8713 23.0591 55.8807 23.1595C55.8902 23.2599 55.9391 23.3525 56.0168 23.4168C56.0945 23.4812 56.1946 23.512 56.295 23.5026C56.3955 23.4931 56.488 23.4442 56.5524 23.3665C56.7841 23.0841 56.9295 22.7409 56.9711 22.378C57.0127 22.015 56.9487 21.6478 56.7867 21.3204Z" fill="#FF6C37"/>
</svg>
