<svg width="75" height="75" viewBox="0 0 75 75" fill="none" xmlns="http://www.w3.org/2000/svg">
<path fill-rule="evenodd" clip-rule="evenodd" d="M60.9222 7.96321C63.4661 9.31384 65.5452 11.3979 66.8899 13.945C68.2666 16.5244 68.9998 19.0826 68.9998 26.1351V38.5227C68.9996 38.6008 68.9763 38.6772 68.9329 38.7421C68.8894 38.8071 68.8276 38.8577 68.7554 38.8876C68.6832 38.9174 68.6038 38.9253 68.5271 38.9101C68.4505 38.8949 68.3801 38.8573 68.3247 38.8021V38.8004L63.6564 34.1234C63.4728 33.9396 63.3272 33.7213 63.2279 33.4812C63.1286 33.2411 63.0776 32.9837 63.0778 32.7239V26.9983C63.0778 21.7076 62.5274 19.7893 61.4953 17.8552C60.4865 15.9451 58.9268 14.3824 57.0186 13.3699C55.11 12.345 53.2152 11.7953 48.062 11.7839H40.3447C40.2667 11.7835 40.1905 11.76 40.1258 11.7164C40.0611 11.6728 40.0107 11.6111 39.981 11.5389C39.9513 11.4668 39.9436 11.3875 39.9589 11.3109C39.9741 11.2344 40.0117 11.1641 40.0668 11.1089L44.7351 6.42994C44.9181 6.24607 45.1357 6.10016 45.3753 6.00057C45.6148 5.90098 45.8717 5.84968 46.1311 5.84961H48.7563C55.7949 5.84961 58.3479 6.58448 60.9222 7.96321ZM51.2356 15.7401C55.5961 15.7401 59.1305 19.2832 59.1305 23.6525V28.6621C59.1302 28.7394 59.1072 28.8148 59.0645 28.8792C59.0217 28.9436 58.9611 28.994 58.89 29.0243C58.8189 29.0546 58.7405 29.0634 58.6645 29.0497C58.5885 29.0359 58.5181 29.0002 58.4621 28.9469L52.0971 22.8489C51.6903 22.4406 51.1987 22.1266 50.657 21.9294C50.211 21.7604 49.738 21.674 49.261 21.6744H30.4715C30.3933 21.6743 30.317 21.651 30.252 21.6076C30.1871 21.5641 30.1365 21.5023 30.1066 21.4301C30.0767 21.3579 30.0689 21.2785 30.0841 21.2018C30.0993 21.1252 30.1369 21.0547 30.1921 20.9994L34.8673 16.3187C35.2371 15.9486 35.7387 15.7405 36.2619 15.7401H51.2356Z" fill="#E55638"/>
<path fill-rule="evenodd" clip-rule="evenodd" d="M63.7513 40.1528L68.4214 44.8315C68.7913 45.2034 68.9993 45.7065 69 46.231V48.8634C69 55.9161 68.2666 58.4745 66.8898 61.054C65.5452 63.601 63.466 65.6851 60.9222 67.0357C58.3481 68.4125 55.7949 69.1474 48.7563 69.1474H36.3971C36.3191 69.1469 36.243 69.1234 36.1783 69.0798C36.1137 69.0362 36.0633 68.9744 36.0337 68.9023C36.004 68.8301 35.9963 68.7508 36.0116 68.6743C36.0268 68.5978 36.0644 68.5276 36.1194 68.4723V68.4738L40.7878 63.7951C40.9708 63.6112 41.1884 63.4653 41.4279 63.3657C41.6675 63.2662 41.9244 63.2149 42.1838 63.2148H47.8966C53.1749 63.2148 55.088 62.6644 57.0186 61.6288C58.9268 60.6163 60.4865 59.0536 61.4953 57.1435C62.5274 55.2092 63.0778 53.2909 63.0778 48.0002V40.4322C63.0782 40.3544 63.1016 40.2784 63.145 40.2138C63.1884 40.1491 63.2499 40.0988 63.3218 40.0689C63.3937 40.0391 63.4728 40.0312 63.5492 40.0461C63.6256 40.061 63.6959 40.0981 63.7513 40.1528ZM53.8833 30.2603L58.5534 34.9445C58.9232 35.3163 59.1306 35.8195 59.1302 36.344V51.3494C59.1302 55.7188 55.5959 59.2618 51.2351 59.2618H46.2365C46.1592 59.2614 46.0838 59.2384 46.0195 59.1957C45.9552 59.153 45.9048 59.0924 45.8745 59.0213C45.8442 58.9503 45.8354 58.872 45.8491 58.796C45.8628 58.72 45.8984 58.6497 45.9516 58.5937V58.592L52.0353 52.2111C52.444 51.8038 52.758 51.3116 52.9551 50.7693C53.1231 50.3224 53.2088 49.8487 53.208 49.3713V30.5397C53.2081 30.4615 53.2314 30.3851 53.2749 30.3201C53.3184 30.2551 53.3801 30.2045 53.4524 30.1746C53.5247 30.1447 53.6042 30.1369 53.6809 30.1521C53.7576 30.1674 53.828 30.205 53.8833 30.2603Z" fill="#F4C942"/>
<path fill-rule="evenodd" clip-rule="evenodd" d="M6.51119 36.1961L11.183 40.8751C11.5529 41.247 11.7609 41.75 11.7616 42.2746V47.9999C11.7616 53.2906 12.31 55.2089 13.3441 57.143C14.3523 59.0528 15.9113 60.6155 17.8188 61.6283C19.7494 62.6644 21.6642 63.2145 26.9428 63.2145H34.493C34.5713 63.2143 34.6479 63.2373 34.7131 63.2806C34.7784 63.3239 34.8293 63.3856 34.8594 63.4579C34.8896 63.5302 34.8976 63.6098 34.8824 63.6867C34.8673 63.7635 34.8297 63.8341 34.7743 63.8896L30.1023 68.5685C29.9195 68.7522 29.7022 68.898 29.4629 68.9975C29.2237 69.0971 28.9671 69.1485 28.708 69.1488H26.0811C19.0425 69.1488 16.4912 68.414 13.9172 67.0352C11.3726 65.6849 9.29268 63.6008 7.94754 61.0534C6.58463 58.5 5.85248 55.9672 5.83789 49.0736L5.83765 36.4755C5.83807 36.3977 5.86145 36.3217 5.90485 36.2571C5.94826 36.1924 6.00977 36.1421 6.08167 36.1122C6.15358 36.0824 6.23268 36.0744 6.30908 36.0894C6.38549 36.1043 6.45579 36.1414 6.51119 36.1961ZM16.3753 46.0515H16.3735L22.742 52.1495C23.1483 52.5577 23.6393 52.8716 24.1804 53.0691C24.6263 53.2386 25.0996 53.325 25.5767 53.324H44.3662C44.4442 53.3245 44.5203 53.348 44.585 53.3916C44.6496 53.4352 44.7 53.497 44.7296 53.5691C44.7593 53.6413 44.767 53.7206 44.7517 53.797C44.7365 53.8735 44.6989 53.9438 44.6438 53.999L39.9703 58.6797C39.6003 59.0494 39.0988 59.2574 38.5758 59.2583H23.6023C22.5643 59.2572 21.5367 59.0517 20.5782 58.6534C19.6197 58.2552 18.749 57.6721 18.0159 56.9373C17.2828 56.2026 16.7015 55.3306 16.3054 54.3712C15.9093 53.4119 15.706 52.3839 15.7071 51.3459V46.3364C15.7075 46.2591 15.7304 46.1836 15.7732 46.1193C15.8159 46.0549 15.8766 46.0044 15.9477 45.9741C16.0187 45.9439 16.0971 45.935 16.1732 45.9488C16.2492 45.9625 16.3193 45.9982 16.3753 46.0515Z" fill="#7B8FEA"/>
<path fill-rule="evenodd" clip-rule="evenodd" d="M28.6007 15.7401C28.6779 15.7405 28.7533 15.7635 28.8176 15.8062C28.8819 15.8489 28.9323 15.9096 28.9626 15.9806C28.9929 16.0516 29.0017 16.13 28.988 16.2059C28.9743 16.2819 28.9387 16.3523 28.8855 16.4082L22.8001 22.7911C22.3922 23.1985 22.0788 23.6906 21.8823 24.2326C21.7136 24.6794 21.6273 25.1531 21.6274 25.6307V44.4622C21.6267 44.5399 21.6031 44.6157 21.5596 44.6801C21.516 44.7445 21.4545 44.7946 21.3827 44.8243C21.3108 44.8539 21.2318 44.8618 21.1556 44.8468C21.0793 44.8318 21.0091 44.7947 20.9538 44.7401L16.2838 40.056C15.914 39.6847 15.7066 39.1819 15.7071 38.658V23.6525C15.7071 19.2832 19.2413 15.7401 23.602 15.7401H28.6007ZM38.4403 5.84961C38.5183 5.85003 38.5944 5.87352 38.6591 5.91711C38.7239 5.96071 38.7742 6.02246 38.8039 6.09461C38.8336 6.16675 38.8413 6.24607 38.8261 6.32259C38.8108 6.3991 38.7733 6.4694 38.7182 6.52464L34.0499 11.2036C33.8667 11.3874 33.6492 11.5332 33.4096 11.6328C33.1701 11.7323 32.9132 11.7837 32.6538 11.7839H26.941C21.6625 11.7839 19.7477 12.3343 17.817 13.3699C15.9089 14.3824 14.3492 15.9451 13.3403 17.8552C12.3192 19.769 11.7695 21.6675 11.7579 26.8326V34.5665C11.7574 34.6443 11.734 34.7202 11.6906 34.7848C11.6472 34.8493 11.5857 34.8997 11.5139 34.9295C11.442 34.9593 11.363 34.9673 11.2866 34.9524C11.2103 34.9376 11.14 34.9005 11.0846 34.8459L6.41797 30.1672C6.23402 29.9835 6.08809 29.7653 5.98851 29.5252C5.88894 29.2851 5.83767 29.0276 5.83765 28.7677V26.1351C5.83765 19.0826 6.57078 16.524 7.94754 13.945C9.29216 11.3979 11.3713 9.31384 13.9152 7.96321C16.4638 6.59832 18.9915 5.86445 25.8697 5.84961H38.4403Z" fill="#D97EE8"/>
</svg>
