<svg width="75" height="75" viewBox="0 0 75 75" fill="none" xmlns="http://www.w3.org/2000/svg">
<path d="M42.1875 37.5C42.1875 38.4271 41.9126 39.3334 41.3975 40.1042C40.8824 40.8751 40.1504 41.4759 39.2938 41.8307C38.4373 42.1855 37.4948 42.2783 36.5855 42.0974C35.6762 41.9166 34.841 41.4701 34.1854 40.8146C33.5299 40.159 33.0834 39.3238 32.9026 38.4145C32.7217 37.5052 32.8145 36.5627 33.1693 35.7062C33.5241 34.8496 34.1249 34.1176 34.8958 33.6025C35.6666 33.0874 36.5729 32.8125 37.5 32.8125C38.7432 32.8125 39.9355 33.3064 40.8146 34.1854C41.6936 35.0645 42.1875 36.2568 42.1875 37.5ZM37.5 61.9219C39.5646 61.9164 41.6201 61.6486 43.6172 61.125V54.7734C45.7179 54.0618 47.6716 52.9737 49.3828 51.5625C48.7001 49.048 47.5901 46.6697 46.1016 44.5313C42.9477 50.4361 37.7093 54.956 31.4062 57.2109V61.2188C33.4002 61.7064 35.4474 61.9426 37.5 61.9219ZM58.5938 25.3125C57.5563 23.5275 56.2962 21.8815 54.8437 20.4141L49.3359 23.6016C47.641 22.1511 45.6948 21.0232 43.5938 20.2734C41.7529 22.1169 40.2461 24.266 39.1406 26.625C45.8334 26.4028 52.3685 28.6842 57.4688 33.0234L60.9375 31.0078C60.4026 29.0171 59.615 27.1031 58.5938 25.3125ZM16.4062 25.3125C15.3827 27.1019 14.5949 29.0163 14.0625 31.0078L19.5703 34.1953C19.1659 36.3878 19.1659 38.6357 19.5703 40.8281C22.0821 41.4984 24.691 41.7284 27.2813 41.5078C23.7374 35.8225 22.442 29.0196 23.6484 22.4297L20.1328 20.4375C18.6883 21.8974 17.436 23.5356 16.4062 25.3125Z" fill="#DDDDDD"/>
<path d="M58.5938 49.7344C59.6173 47.9449 60.4051 46.0306 60.9375 44.0391L55.4531 40.8516C55.8576 38.6591 55.8576 36.4112 55.4531 34.2188C52.9414 33.5484 50.3325 33.3185 47.7422 33.5391C51.3509 39.1992 52.7135 46.0039 51.5625 52.6172L55.0312 54.6094C56.4181 53.1399 57.615 51.5021 58.5938 49.7344ZM16.4062 49.7344C17.4437 51.5194 18.7038 53.1654 20.1563 54.6328L25.6641 51.4453C27.359 52.8958 29.3052 54.0237 31.4062 54.7734C33.2471 52.93 34.7539 50.7809 35.8594 48.4219C29.1666 48.6441 22.6315 46.3627 17.5313 42.0234L14.0625 44.0156C14.5955 46.0144 15.3832 47.9364 16.4062 49.7344ZM37.5 13.1016C35.4354 13.107 33.3799 13.3748 31.3828 13.8984V20.25C29.2752 20.9901 27.321 22.1101 25.6172 23.5547C26.2999 26.0691 27.4099 28.4475 28.8984 30.5859C32.0523 24.6811 37.2907 20.1612 43.5938 17.9062V13.9219C41.6053 13.3923 39.5577 13.1167 37.5 13.1016Z" fill="#00B4FF"/>
<path d="M37.5 8.92969C43.1573 8.92505 48.6888 10.5987 53.3946 13.7388C58.1005 16.879 61.769 21.3445 63.9361 26.5703C66.1032 31.796 66.6714 37.5472 65.5689 43.096C64.4663 48.6449 61.7426 53.7419 57.7423 57.7423C53.7419 61.7426 48.6449 64.4663 43.096 65.5689C37.5472 66.6714 31.796 66.1032 26.5703 63.9361C21.3445 61.769 16.879 58.1005 13.7388 53.3946C10.5987 48.6888 8.92505 43.1573 8.92969 37.5C8.94825 29.9284 11.9643 22.6722 17.3182 17.3182C22.6722 11.9643 29.9284 8.94825 37.5 8.92969ZM37.5 4.6875C28.7976 4.6875 20.4516 8.14452 14.2981 14.2981C8.14452 20.4516 4.6875 28.7976 4.6875 37.5C4.6875 46.2024 8.14452 54.5484 14.2981 60.7019C20.4516 66.8555 28.7976 70.3125 37.5 70.3125C46.2024 70.3125 54.5484 66.8555 60.7019 60.7019C66.8555 54.5484 70.3125 46.2024 70.3125 37.5C70.3125 28.7976 66.8555 20.4516 60.7019 14.2981C54.5484 8.14452 46.2024 4.6875 37.5 4.6875Z" fill="#00B4FF"/>
</svg>
