<svg width="75" height="67" viewBox="0 0 75 67" fill="none" xmlns="http://www.w3.org/2000/svg">
<g clip-path="url(#clip0_348_8246)">
<path d="M61.6646 21.628C60.8665 21.3542 60.0615 21.1005 59.2506 20.8671C59.3868 20.3105 59.5122 19.7606 59.6235 19.2204C61.4511 10.349 60.2563 3.20208 56.1756 0.848968C52.263 -1.40688 45.8643 0.945354 39.4021 6.56945C38.7651 7.1247 38.1424 7.69597 37.5344 8.28272C37.1273 7.89257 36.7131 7.50999 36.2919 7.13517C29.5191 1.12172 22.7305 -1.41274 18.6541 0.947112C14.745 3.20999 13.5875 9.92861 15.2328 18.3362C15.3965 19.1689 15.5814 19.9973 15.7871 20.8206C14.8262 21.0936 13.899 21.3842 13.0116 21.6936C5.07097 24.4621 0 28.8007 0 33.301C0 37.9489 5.44392 42.6109 13.7144 45.4377C14.3849 45.6659 15.061 45.8774 15.742 46.072C15.5209 46.9587 15.3245 47.8515 15.1531 48.7491C13.5846 57.0108 14.8095 63.5706 18.708 65.8192C22.7346 68.1412 29.4927 65.7547 36.0731 60.0023C36.6066 59.5346 37.1285 59.0537 37.6381 58.56C38.2965 59.1953 38.9726 59.8122 39.6654 60.4098C46.0398 65.8947 52.3351 68.1096 56.2298 65.8549C60.2525 63.5261 61.5601 56.4791 59.8626 47.9054C59.7289 47.2337 59.5789 46.5653 59.4129 45.9009C59.8875 45.7603 60.3533 45.6155 60.8074 45.465C69.4054 42.6164 74.9996 38.011 74.9996 33.301C74.9996 28.7843 69.7649 24.4164 61.6646 21.628ZM59.7999 42.424C59.3894 42.5595 58.9694 42.6909 58.5401 42.818C57.5909 39.813 56.3101 36.6179 54.7424 33.3165C56.2383 30.0938 57.4699 26.9395 58.3925 23.9541C59.1598 24.1762 59.9042 24.4103 60.622 24.6573C67.5624 27.0467 71.7957 30.579 71.7957 33.301C71.7957 36.2002 67.2237 39.9639 59.7999 42.424ZM56.7196 48.5276C57.4702 52.3186 57.5772 55.7464 57.08 58.4261C56.6335 60.834 55.7353 62.4392 54.6243 63.0823C52.261 64.4504 47.2064 62.6721 41.7552 57.9811C41.1108 57.4254 40.4819 56.852 39.8693 56.2614C41.9828 53.9502 44.0948 51.2634 46.1561 48.2792C49.7819 47.9575 53.2073 47.4314 56.3136 46.7133C56.4669 47.3309 56.6023 47.9357 56.7196 48.5276ZM25.569 62.8458C23.2598 63.6612 21.4206 63.6846 20.3088 63.0436C17.9431 61.6792 16.9596 56.412 18.3011 49.3468C18.4606 48.5119 18.6431 47.6816 18.8486 46.8568C21.9207 47.5365 25.3212 48.0252 28.9554 48.3199C31.0308 51.2399 33.2037 53.9238 35.3937 56.274C34.9283 56.7243 34.4518 57.1631 33.9649 57.59C31.0548 60.1335 28.1389 61.9382 25.569 62.8458ZM14.7509 42.4061C11.0938 41.156 8.07359 39.5315 6.00349 37.7588C4.14314 36.1659 3.20418 34.5842 3.20418 33.301C3.20418 30.5699 7.27555 27.0865 14.0662 24.7191C14.8904 24.432 15.7529 24.161 16.6479 23.9067C17.5865 26.9594 18.8176 30.1513 20.3032 33.3789C18.7982 36.6543 17.5496 39.8971 16.6019 42.9859C15.9802 42.8078 15.3631 42.6145 14.7509 42.4061ZM18.3773 17.7207C16.9678 10.5175 17.9038 5.08381 20.2596 3.72005C22.7685 2.26752 28.3168 4.3385 34.1647 9.53105C34.546 9.87041 34.9212 10.2167 35.29 10.5696C33.1109 12.9096 30.9579 15.5735 28.9009 18.4762C25.3736 18.8032 21.9972 19.3282 18.8929 20.0316C18.7016 19.2658 18.5296 18.4951 18.3773 17.7207ZM50.7288 25.7096C49.9955 24.4431 49.2351 23.1925 48.448 21.9587C50.841 22.2614 53.1337 22.663 55.2867 23.154C54.6405 25.2259 53.8348 27.3918 52.8865 29.6125C52.1933 28.2973 51.4739 26.9961 50.7288 25.7096ZM37.5359 12.8597C39.0136 14.4608 40.4937 16.2482 41.9494 18.1877C38.9963 18.0482 36.0383 18.0476 33.0851 18.1859C34.5423 16.2643 36.035 14.4793 37.5359 12.8597ZM24.2583 25.7313C23.5224 27.0074 22.8165 28.3005 22.141 29.6096C21.2082 27.3968 20.4099 25.2209 19.758 23.1198C21.8978 22.641 24.1798 22.2496 26.5575 21.9526C25.7617 23.1939 24.995 24.454 24.2583 25.7313ZM26.6257 44.877C24.1692 44.6028 21.853 44.2316 19.7138 43.7658C20.3759 41.6271 21.1918 39.4049 22.1448 37.1447C22.823 38.4547 23.5319 39.7486 24.2709 41.0253C25.0308 42.3378 25.8177 43.6234 26.6257 44.877ZM37.6243 53.9678C36.1056 52.3295 34.5909 50.5169 33.1118 48.5675C34.5479 48.6237 36.0118 48.6524 37.4998 48.6524C39.0285 48.6524 40.5396 48.6182 42.027 48.552C40.5666 50.5365 39.0921 52.3517 37.6243 53.9678ZM52.9166 37.0293C53.9192 39.3144 54.7641 41.5248 55.435 43.6269C53.2606 44.1232 50.9127 44.5228 48.4389 44.8196C49.2317 43.5629 49.9993 42.2906 50.7414 41.0034C51.4959 39.695 52.2212 38.37 52.9166 37.0293ZM47.9661 39.4026C46.8299 41.3761 45.63 43.3121 44.3681 45.2077C42.0823 45.3697 39.7914 45.4502 37.4998 45.4488C35.1657 45.4488 32.8955 45.3762 30.7094 45.2344C29.4145 43.3433 28.1917 41.4038 27.0435 39.4202C25.9006 37.4471 24.8334 35.4313 23.8437 33.3771C24.831 31.3225 25.8952 29.3057 27.0341 27.3312L27.0339 27.3315C28.1722 25.3563 29.3853 23.4251 30.6705 21.5421C32.9008 21.3734 35.188 21.2855 37.4995 21.2855C39.8216 21.2855 42.112 21.3743 44.3418 21.5442C45.6139 23.4244 46.8193 25.3489 47.9555 27.3142C49.0981 29.2845 50.1764 31.2914 51.1887 33.3317C50.1868 35.3929 49.1119 37.4178 47.9661 39.4026ZM54.5754 3.62425C57.0867 5.07268 58.0635 10.9136 56.4856 18.5732C56.3844 19.0623 56.2721 19.5593 56.1487 20.0644C53.0368 19.346 49.658 18.812 46.1204 18.48C44.0596 15.5454 41.9242 12.8773 39.7806 10.5676C40.3424 10.026 40.9176 9.49854 41.5056 8.98555C47.0426 4.16712 52.2176 2.26459 54.5754 3.62425ZM37.4998 26.6037C41.1985 26.6037 44.197 29.6022 44.197 33.301C44.197 36.9997 41.1985 39.9982 37.4998 39.9982C33.8011 39.9982 30.8026 36.9997 30.8026 33.301C30.8026 29.6022 33.8011 26.6037 37.4998 26.6037Z" fill="#00D8FF"/>
</g>
<defs>
<clipPath id="clip0_348_8246">
<rect width="75" height="66.7965" fill="white"/>
</clipPath>
</defs>
</svg>
