<svg width="75" height="75" viewBox="0 0 75 75" fill="none" xmlns="http://www.w3.org/2000/svg">
<path d="M37.5 6.25C41.6038 6.25 45.6674 7.05831 49.4589 8.62876C53.2503 10.1992 56.6953 12.5011 59.5971 15.4029C62.4989 18.3047 64.8008 21.7497 66.3712 25.5411C67.9417 29.3326 68.75 33.3962 68.75 37.5C68.75 45.788 65.4576 53.7366 59.5971 59.5971C53.7366 65.4576 45.788 68.75 37.5 68.75C33.3962 68.75 29.3326 67.9417 25.5411 66.3712C21.7497 64.8008 18.3047 62.4989 15.4029 59.5971C9.5424 53.7366 6.25 45.788 6.25 37.5C6.25 29.212 9.5424 21.2634 15.4029 15.4029C21.2634 9.5424 29.212 6.25 37.5 6.25ZM31.25 47.9062C31.75 49.5937 31.6875 51.1562 31.25 52.5937C31.25 52.75 31.125 52.9062 31.0625 53.125C31 53.125 30.9375 53.3438 30.8437 53.5C30.5 54.25 30 54.9688 29.4062 55.5938C27.5937 57.5938 25 58.3437 23.9688 57.7187C22.7813 57.0312 23.4375 54.2187 25.5 52C27.75 49.625 31 48.0625 31 48.0625L31.25 47.9062ZM57.0938 19.625C55.6875 14.0625 46.4688 12.25 37.7813 15.3437C32.5938 17.1875 26.9688 20.0625 22.9375 23.8438C18.1563 28.3438 17.375 32.25 17.6875 33.875C18.75 39.625 26.6875 43.4062 29.9375 46.1875V46.2187C29 46.6875 22 50.2187 20.3125 53.8437C18.625 57.6562 20.625 60.4063 21.875 60.7813C26.0625 61.9063 30.2812 59.875 32.5312 56.4687C34.7187 53.2187 34.5625 49 33.5938 46.875C34.9062 46.5625 36.4375 46.4063 38.375 46.625C43.875 47.2813 44.9375 50.6875 44.7188 52.125C44.5313 53.5625 43.375 54.3437 43 54.5937C42.625 54.8125 42.5 54.9062 42.5312 55.0937C42.5625 55.3437 42.75 55.3438 43.0625 55.2813C43.5312 55.1875 45.9687 54.125 46.0625 51.4687C46.1875 48.0937 42.9688 44.3438 37.2813 44.4375C34.9375 44.5 33.4687 44.7187 32.4062 45.125L32.1562 44.8438C28.625 41.0938 22.125 38.4375 22.4063 33.375C22.5 31.5313 23.125 26.7188 34.9063 20.8438C44.5312 16.0313 52.25 17.3438 53.5937 20.3125C55.5 24.4688 49.4688 32.25 39.4688 33.375C35.6563 33.8125 33.625 32.3125 33.125 31.7813C32.5938 31.25 32.5313 31.1563 32.3438 31.25C32 31.4688 32.2188 31.9687 32.3438 32.2812C32.625 33.0625 33.875 34.375 35.9375 35.125C37.7812 35.7187 42.2813 36.0625 47.6875 33.9687C53.75 31.625 58.5 25.0938 57.0938 19.625Z" fill="#CD669A"/>
</svg>
