<svg width="75" height="75" viewBox="0 0 75 75" fill="none" xmlns="http://www.w3.org/2000/svg">
<path d="M56.25 49.2188V21.0938H51.5625V53.9062H70.3125V49.2188H56.25ZM42.1875 21.0938H32.8125C31.5693 21.0938 30.377 21.5876 29.4979 22.4667C28.6189 23.3458 28.125 24.538 28.125 25.7812V49.2188C28.125 50.462 28.6189 51.6542 29.4979 52.5333C30.377 53.4124 31.5693 53.9062 32.8125 53.9062H35.1562V58.5938C35.1562 59.837 35.6501 61.0292 36.5292 61.9083C37.4083 62.7874 38.6005 63.2812 39.8438 63.2812H44.5312V58.5938H39.8438V53.9062H42.1875C43.4307 53.9062 44.623 53.4124 45.5021 52.5333C46.3811 51.6542 46.875 50.462 46.875 49.2188V25.7812C46.875 24.538 46.3811 23.3458 45.5021 22.4667C44.623 21.5876 43.4307 21.0938 42.1875 21.0938ZM32.8125 49.2188V25.7812H42.1875V49.2188H32.8125ZM18.75 53.9062H4.6875V49.2188H18.75V39.8438H9.375C8.1318 39.8438 6.93951 39.3499 6.06044 38.4708C5.18136 37.5917 4.6875 36.3995 4.6875 35.1562V25.7812C4.6875 24.538 5.18136 23.3458 6.06044 22.4667C6.93951 21.5876 8.1318 21.0937 9.375 21.0938H23.4375V25.7812H9.375V35.1562H18.75C19.9932 35.1562 21.1855 35.6501 22.0646 36.5292C22.9436 37.4083 23.4375 38.6005 23.4375 39.8438V49.2188C23.4375 50.462 22.9436 51.6542 22.0646 52.5333C21.1855 53.4124 19.9932 53.9062 18.75 53.9062Z" fill="#DDDDDD"/>
</svg>
