<svg width="75" height="75" viewBox="0 0 75 75" fill="none" xmlns="http://www.w3.org/2000/svg">
<path d="M57 3H9.75713C8.23155 3.00428 6.76968 3.61587 5.69093 4.70113C4.61218 5.78639 4.00426 7.25709 4 8.79187V61.2081C4.00426 62.7429 4.61218 64.2136 5.69093 65.2989C6.76968 66.3841 8.23155 66.9957 9.75713 67H40.8741C40.5192 51.4234 45.8084 21.1953 57 3Z" fill="#0F80CC"/>
<path d="M55 5H10.0269C8.95975 5.00282 7.93713 5.43013 7.18255 6.18852C6.42797 6.94691 6.0028 7.97471 6 9.04723V57C17.5377 52.6259 29.7171 50.2046 42.0428 49.8346C45.3032 34.601 49.6331 19.6186 55 5Z" fill="#4BA7DE"/>
<path d="M67.7499 1.62905C64.5738 -1.24483 60.7095 -0.0904589 56.8982 3.32713C56.3336 3.8378 55.7707 4.39579 55.2096 5.0011C48.0399 13.582 43.0822 23.8264 40.7796 34.8193C41.493 36.3874 42.055 38.0217 42.4576 39.6992C42.5529 40.0742 42.6403 40.4277 42.7223 40.7277C42.8864 41.4375 42.987 41.8982 42.987 41.8982C42.987 41.8982 42.9287 41.6759 42.6879 40.9715L42.5317 40.5161L42.4312 40.2644C42.0077 39.2653 40.8431 37.1575 40.3138 36.2468C39.8718 37.5673 39.48 38.802 39.1545 39.9189C40.2567 42.3094 41.0638 44.8281 41.5577 47.4183C41.5577 47.4183 41.4783 47.1102 41.1051 46.0389C40.3882 44.4742 39.5932 42.9473 38.7231 41.4643C38.1574 42.9327 37.9188 44.5093 38.0243 46.0818C38.6075 47.2578 39.0457 48.5018 39.3292 49.7859C40.2132 53.2223 40.8272 57.4085 40.8272 57.4085L40.8802 58.1129C40.763 60.9752 40.8204 63.842 41.0522 66.6971C41.1847 69.5238 41.7049 72.3182 42.5979 75L43.0743 74.7322C41.9674 70.7016 41.5397 66.5111 41.8092 62.3367C42.3085 53.4868 44.0352 44.752 46.9386 36.3888C52.2585 22.1721 59.6429 10.7622 66.3921 5.31983C60.2358 10.9444 51.9038 29.1572 49.408 35.9013C46.7804 42.8454 44.7835 50.0174 43.4422 57.3282C45.0351 53.2463 48.1601 49.9684 52.1341 48.2111C52.1341 48.2111 55.3975 44.1373 59.2115 38.3199C56.7472 38.8389 54.313 39.4943 51.9197 40.2831C50.067 41.0706 49.5668 41.3384 49.5668 41.3384C53.104 39.184 56.8403 37.3836 60.7228 35.9629C67.8054 24.6736 75.5233 8.64367 67.7525 1.61566" fill="#003B57"/>
</svg>
