<svg width="75" height="75" viewBox="0 0 75 75" fill="none" xmlns="http://www.w3.org/2000/svg">
<g clip-path="url(#clip0_319_26403)">
<path d="M67.9395 1.62896C64.7145 -1.24565 60.8145 -0.0895911 56.9602 3.32935C56.3668 3.86266 55.7963 4.42098 55.2504 5.00279C48.661 11.993 42.5449 24.9364 40.6453 34.8241C41.3848 36.3258 41.9637 38.2413 42.3457 39.7038C42.5364 40.4306 42.7074 41.1626 42.8584 41.8987C42.8584 41.8987 42.7992 41.6766 42.5567 40.9741L42.4008 40.5188C42.3688 40.4346 42.3344 40.3514 42.2977 40.2692C41.8676 39.269 40.6799 37.1585 40.1555 36.2409C39.7399 37.4579 39.3476 38.6827 38.9789 39.9147C40.4918 42.6768 41.41 47.4147 41.41 47.4147C41.41 47.4147 41.3321 47.1059 40.9518 46.0348C40.6178 45.0874 38.9379 42.146 38.5395 41.4592C37.8598 43.9729 37.5903 45.6663 37.8323 46.0782C38.3086 46.8768 38.7569 48.2596 39.1506 49.7837C40.0459 53.2219 40.6658 57.4102 40.6658 57.4102L40.7209 58.1087C40.602 60.9715 40.6612 63.8397 40.8949 66.6962C41.1926 70.278 41.7487 73.3518 42.4582 75.0001L42.941 74.7364C41.8975 71.4932 41.4739 67.2411 41.6614 62.3409C41.9408 54.8467 43.6664 45.8087 46.8504 36.3897C52.2358 22.1743 59.7047 10.7649 66.5391 5.3151C60.3106 10.9407 51.8772 29.1598 49.3524 35.9028C46.5258 43.4538 44.5254 50.5378 43.3184 57.3276C45.4014 50.9626 52.1326 48.2297 52.1326 48.2297C52.1326 48.2297 55.4356 44.1551 59.2946 38.3374C56.983 38.8635 53.1856 39.7676 51.9129 40.3008C50.0379 41.086 49.5323 41.3538 49.5323 41.3538C49.5323 41.3538 55.609 37.6553 60.8233 35.9795C67.9916 24.6885 75.8033 8.64849 67.9395 1.62896ZM9.90002 3.32818C6.73713 3.3399 4.17542 5.90045 4.16663 9.06392V60.9628C4.176 64.1256 6.73889 66.6844 9.90002 66.6962H39.3299C39.1102 63.8818 39.056 61.0571 39.1676 58.2364C39.1494 58.0419 39.133 57.7946 39.1172 57.6112C38.7368 55.1128 38.2435 52.6329 37.6389 50.1792C37.261 48.7102 36.7805 47.3731 36.4875 46.8768C36.1237 46.261 36.1805 45.9083 36.1828 45.5262C36.1828 45.1512 36.2309 44.7616 36.3 44.3198C36.4848 43.219 36.7282 42.1303 37.0301 41.0538L37.7074 40.9671C37.6547 40.8569 37.6641 40.7631 37.6114 40.6647L37.483 39.4747C37.8568 38.2226 38.2553 36.978 38.6783 35.7417L39.303 35.6819C39.2778 35.6338 39.2707 35.5629 39.2455 35.5178L39.1108 34.5305C41.0813 24.279 47.1967 11.2694 54.1114 3.93346C54.3176 3.71666 54.528 3.53326 54.7295 3.32701L9.90002 3.32818Z" fill="#DDDDDD"/>
</g>
<defs>
<clipPath id="clip0_319_26403">
<rect width="75" height="75" fill="white"/>
</clipPath>
</defs>
</svg>
