<svg width="75" height="75" viewBox="0 0 75 75" fill="none" xmlns="http://www.w3.org/2000/svg">
<path d="M54.5558 10.7555C63.8239 16.3925 70 26.486 70 38C70 55.673 55.449 70 37.4997 70C33.6996 70.0046 29.9283 69.351 26.3583 68.069L25.9875 67.933L26.5918 67.7415L27.3688 67.491L27.7522 67.3645L28.1321 67.2385L28.8816 66.984L29.6174 66.728L30.339 66.4705L31.0474 66.2115L31.3968 66.081L32.0844 65.819C32.8106 65.539 33.5136 65.2558 34.1934 64.9695L34.6986 64.754L35.3182 64.4835C35.587 64.3641 35.855 64.2427 36.122 64.1195L36.5151 63.9365L37.0935 63.66L37.3774 63.5215L37.6577 63.382L38.2087 63.102C42.8328 60.714 45.9742 58.1195 47.6424 55.275C51.1768 49.248 48.0897 42.8075 39.2294 36.2415L38.5083 35.7095L38.0705 35.3785L37.6455 35.0505L37.2326 34.7245L36.833 34.4015L36.638 34.241L36.4455 34.081L36.0707 33.7625L35.7981 33.5255L35.5325 33.2895L35.1892 32.9775L34.8581 32.6675L34.5392 32.3605L34.3848 32.208L34.233 32.0555L33.9389 31.753C30.4365 28.087 29.6545 24.949 31.2445 22.237C32.0539 20.857 33.457 19.5 35.4512 18.1785L35.6934 18.02L36.0748 17.7785C36.2475 17.6715 36.4239 17.5645 36.604 17.4575L36.8772 17.2975L37.2986 17.0585L37.7328 16.8205L38.0675 16.6425L38.4092 16.465L38.8769 16.229C39.2413 16.0482 39.6081 15.8724 39.9774 15.7015L40.3593 15.5265L40.8798 15.2945L41.1449 15.1785L41.6852 14.9485L41.9604 14.8335L42.521 14.604L42.8054 14.49L43.3858 14.2625L43.6809 14.149L44.2811 13.923L44.8941 13.698L45.2054 13.5865L45.8386 13.363L46.4845 13.141L47.1442 12.9205L47.4788 12.8105L48.1578 12.5915L48.8505 12.3735L49.5558 12.157L50.2744 11.9415L51.0066 11.7275L51.94 11.4615L52.8942 11.1975L54.0662 10.8835L54.5558 10.7555ZM37.4997 6C41.4521 6 45.2399 6.695 48.7433 7.9665L49.1176 8.105L48.8804 8.176L47.7226 8.5275L47.3438 8.6455L46.5958 8.8825L45.8615 9.122L45.1409 9.363L44.434 9.606L43.7408 9.851L43.399 9.974L42.5601 10.284L41.7426 10.5975L41.1032 10.85L40.7889 10.977L40.1704 11.233C33.8496 13.885 29.7073 16.859 27.7268 20.237C24.2691 26.1335 27.4054 32.49 36.2663 39.054L36.9874 39.5865L37.4251 39.9175L37.8501 40.246L38.0583 40.4095L38.4641 40.7345L38.7596 40.9765L39.0491 41.2175L39.4228 41.537L39.6057 41.6955L39.9606 42.011C40.1543 42.186 40.3422 42.3598 40.5243 42.5325L40.7934 42.7905L41.1809 43.1755L41.5491 43.556C45.0362 47.2475 45.7817 50.4485 44.1247 53.275C43.0522 55.104 41.0047 56.904 37.9872 58.6515L37.71 58.8105L37.2611 59.061L36.799 59.3105C36.5336 59.4514 36.2669 59.5895 35.9986 59.725L35.5848 59.931L35.0754 60.178L34.5529 60.424L34.0171 60.6695L33.7444 60.792L33.1884 61.0355L32.6196 61.279L32.0372 61.521L31.7406 61.642L31.1383 61.8825L30.8321 62.0025L30.5223 62.1225L29.8932 62.3615L29.2508 62.5995L28.5952 62.8365L27.9259 63.0725L27.2439 63.3075L26.8976 63.4245L26.1952 63.658L25.8388 63.774L25.1166 64.006L24.3808 64.2365L23.4429 64.5235L22.4836 64.809L21.7016 65.0355L20.6098 65.345C11.2497 59.7275 5 49.5825 5 38C5 20.327 19.5505 6 37.4997 6Z" fill="#0080FF"/>
</svg>
