<svg width="75" height="75" viewBox="0 0 75 75" fill="none" xmlns="http://www.w3.org/2000/svg">
<path d="M68 37.5C68 54.3493 54.3493 68 37.5 68C20.6507 68 7 54.3493 7 37.5C7 20.6507 20.6507 7 37.5 7C54.3493 7 68 20.6507 68 37.5ZM50.8342 18.2793C47.7366 18.386 45.0373 20.094 43.0205 22.4578C40.7864 25.0503 39.3071 28.1251 38.2339 31.2551C36.3277 29.6977 34.8579 27.6618 31.7908 26.7773C30.5798 26.4071 29.2976 26.333 28.052 26.5612C26.8065 26.7894 25.6339 27.3133 24.6328 28.0888C23.5941 28.9016 22.8307 30.0144 22.4463 31.2761C21.5332 34.2651 23.4204 36.9338 24.2744 37.887L26.1502 39.8923C26.5295 40.2812 27.4712 41.3125 27.0042 42.7822C26.5181 44.3911 24.5928 45.4224 22.6065 44.8181C21.722 44.5493 20.4505 43.8859 20.7383 42.9595C20.8584 42.5725 21.1272 42.2961 21.274 41.9682C21.4036 41.688 21.4722 41.4707 21.5123 41.3525C21.8707 40.1707 21.3827 38.6304 20.1112 38.2434C18.9293 37.8755 17.7303 38.1653 17.2518 39.6827C16.7257 41.4116 17.5492 44.5398 21.9793 45.9104C27.1719 47.4983 31.5487 44.677 32.1739 40.9942C32.5628 38.6914 31.5182 36.9739 29.6119 34.7798L28.0545 33.0508C27.1109 32.1187 26.7945 30.5098 27.7667 29.2783C28.5902 28.2337 29.7625 27.7991 31.6783 28.3157C34.4862 29.0801 35.7291 31.0149 37.8145 32.5838C36.951 35.405 36.3829 38.2339 35.8778 40.7749L35.5709 42.6717C34.0821 50.4739 32.9498 54.7649 29.9913 57.2278C29.3946 57.6453 28.5425 58.28 27.2711 58.3277C26.5943 58.3372 26.3656 57.8835 26.3656 57.6738C26.3446 57.2068 26.7449 56.9876 27.0118 56.7798C27.3988 56.572 28.005 56.2022 27.9554 55.0623C27.9154 53.7127 26.7945 52.5403 25.1742 52.5918C23.9637 52.6299 22.1166 53.7717 22.1871 55.8572C22.2557 58.0208 24.2706 59.6392 27.2977 59.5305C28.9276 59.4791 32.5418 58.8157 36.1046 54.5762C40.2545 49.721 41.4173 44.1509 42.2904 40.0715L43.2645 34.6978C43.8078 34.7588 44.3854 34.7988 45.0202 34.8179C50.1823 34.9266 52.7652 32.2483 52.8034 30.302C52.8339 29.1201 52.0313 27.9592 50.9181 27.9897C50.4397 28.0018 49.9787 28.172 49.6073 28.4738C49.2359 28.7756 48.9749 29.1919 48.8651 29.6577C48.6268 30.7404 50.5121 31.7241 49.0423 32.6772C47.9996 33.3501 46.1239 33.8286 43.4913 33.4397L43.9698 30.7881C44.9534 25.7651 46.1525 19.5889 50.7313 19.4421C51.0687 19.4211 52.2887 19.4497 52.3097 20.2561C52.3192 20.5229 52.262 20.6049 51.9437 21.2092C51.6474 21.6031 51.4965 22.0873 51.5167 22.5798C51.5548 23.8608 52.5289 24.7052 53.949 24.6538C55.8343 24.5947 56.3719 22.7475 56.3509 21.8039C56.2727 19.5793 53.9281 18.1897 50.8304 18.2812L50.8342 18.2793Z" fill="#DDDDDD"/>
</svg>
