<svg width="75" height="75" viewBox="0 0 75 75" fill="none" xmlns="http://www.w3.org/2000/svg">
<path d="M9.50329 9.23646C9.404 9.23834 9.30641 9.26255 9.21772 9.30724C9.12906 9.35196 9.05157 9.41606 8.99104 9.49479C8.9305 9.57349 8.88843 9.66483 8.86797 9.762C8.8475 9.8592 8.84917 9.95972 8.87282 10.0562L23.1662 67.9127C23.1941 68.0255 23.2512 68.1288 23.3316 68.2127C23.4121 68.2964 23.5132 68.3573 23.6248 68.3897C23.7364 68.422 23.8543 68.4244 23.9672 68.3967C24.08 68.3688 24.1833 68.3119 24.2672 68.2315L67.2668 26.8702C67.3503 26.7895 67.4112 26.6885 67.4435 26.577C67.4757 26.4654 67.4778 26.3473 67.4499 26.2345C67.422 26.1218 67.365 26.0184 67.2844 25.9345C67.204 25.8509 67.103 25.7899 66.9914 25.7576L9.69723 9.26224C9.63428 9.24382 9.56886 9.23513 9.50329 9.23646ZM10.4314 10.8501L65.5235 26.7115L24.1763 66.483L10.4314 10.8501Z" fill="#1F1F1F"/>
<path d="M38.1663 17.4845C38.0794 17.4827 37.9927 17.498 37.9116 17.5297C37.8305 17.5614 37.7564 17.6087 37.6936 17.6691L16.2037 38.3556C16.1202 38.4362 16.0595 38.5374 16.0274 38.649C15.9954 38.7606 15.9932 38.8785 16.0212 38.9912C16.0492 39.1039 16.1062 39.2073 16.1867 39.2907C16.2672 39.3744 16.3682 39.4356 16.4797 39.4677L45.1081 47.7188C45.2196 47.751 45.3375 47.7531 45.45 47.7249C45.5625 47.6971 45.6659 47.6401 45.7495 47.5597C45.833 47.4793 45.8941 47.3783 45.9263 47.267C45.9586 47.1556 45.9612 47.0375 45.9335 46.925L38.7952 17.9873C38.76 17.846 38.6796 17.7203 38.5659 17.6294C38.4523 17.5385 38.3119 17.4876 38.1663 17.4845ZM37.785 19.4181L44.3756 46.131L17.9475 38.5138L37.785 19.4181Z" fill="#1F1F1F"/>
<path d="M27.4887 27.7228C27.3895 27.7247 27.2918 27.7488 27.2032 27.7936C27.1146 27.8384 27.037 27.9023 26.9766 27.9811C26.9161 28.0598 26.8739 28.1512 26.8535 28.2483C26.8329 28.3455 26.8348 28.4461 26.8582 28.5424L30.4055 42.9162C30.4333 43.0289 30.4903 43.1325 30.5709 43.2164C30.6516 43.3003 30.7528 43.3615 30.8644 43.3936C30.9762 43.4259 31.0943 43.4283 31.207 43.4001C31.32 43.3723 31.4233 43.3151 31.507 43.2342L42.1842 32.9435C42.2676 32.8629 42.3283 32.7616 42.3602 32.6501C42.3923 32.5383 42.3944 32.4204 42.3663 32.3076C42.3384 32.1951 42.2812 32.0918 42.2006 32.0081C42.1202 31.9244 42.019 31.8635 41.9076 31.8314L27.6827 27.7486C27.6197 27.7301 27.5543 27.7214 27.4887 27.7228ZM28.4163 29.3346L40.4409 32.7858L31.4144 41.4846L28.4163 29.3346Z" fill="#1F1F1F"/>
<path d="M23.966 13.3654C23.8788 13.3636 23.7921 13.3791 23.711 13.4108C23.6299 13.4426 23.5559 13.4901 23.4931 13.5505L12.8161 23.8409C12.7327 23.9215 12.6719 24.0228 12.6399 24.1343C12.6079 24.2459 12.6058 24.364 12.6338 24.4765C12.6618 24.5892 12.719 24.6926 12.7995 24.776C12.8801 24.8597 12.9811 24.9206 13.0927 24.953L27.3152 29.0363C27.4266 29.0681 27.5447 29.0703 27.6572 29.0421C27.7697 29.0142 27.8728 28.957 27.9565 28.8767C28.0399 28.796 28.1009 28.695 28.1332 28.5837C28.1653 28.4724 28.1679 28.3545 28.1402 28.2417L24.5946 13.8687C24.5599 13.7272 24.4793 13.6012 24.3659 13.5101C24.2522 13.419 24.1116 13.3685 23.966 13.3654ZM23.5852 15.299L26.5816 27.4491L14.5599 23.9979L23.5852 15.299ZM52.4138 21.5591C52.3268 21.5574 52.2403 21.5729 52.1592 21.6047C52.0781 21.6365 52.0043 21.6839 51.9415 21.7443L41.2634 32.0339C41.1797 32.1146 41.1185 32.2158 41.0864 32.3276C41.0541 32.4392 41.052 32.5575 41.0801 32.6703C41.108 32.783 41.1654 32.8866 41.246 32.97C41.3269 33.0537 41.4281 33.1146 41.5399 33.1467L55.763 37.2295C55.8745 37.2614 55.9924 37.2633 56.1049 37.2354C56.2174 37.2073 56.3208 37.1501 56.4042 37.0697C56.4879 36.9893 56.5488 36.8883 56.5809 36.777C56.6133 36.6654 56.6156 36.5475 56.588 36.435L53.0431 22.0619C53.0081 21.9204 52.9275 21.7944 52.8138 21.7034C52.6999 21.6124 52.5595 21.5621 52.4138 21.5591ZM52.0329 23.4928L55.0294 35.6433L43.0078 32.1921L52.0329 23.4928ZM31.0219 42.1085C30.8595 42.1149 30.7052 42.1805 30.5883 42.2932L19.9112 52.5839C19.8278 52.6645 19.767 52.7658 19.735 52.8774C19.703 52.9889 19.7009 53.107 19.7289 53.2198C19.757 53.3323 19.8141 53.4356 19.8946 53.5193C19.9752 53.603 20.0763 53.6639 20.1878 53.696L34.4133 57.7788C34.5246 57.8105 34.6425 57.8126 34.7548 57.7845C34.8673 57.7563 34.9702 57.6994 35.0536 57.619C35.137 57.5386 35.198 57.4378 35.2303 57.3265C35.2627 57.2152 35.265 57.0975 35.2376 56.985L31.6898 42.6113C31.6533 42.4634 31.5668 42.3328 31.4452 42.2412C31.3235 42.1495 31.174 42.1027 31.0219 42.1085ZM30.6809 44.0421L33.6797 56.1928L21.655 52.7417L30.6809 44.0421Z" fill="#1F1F1F"/>
</svg>
