<svg width="75" height="75" viewBox="0 0 75 75" fill="none" xmlns="http://www.w3.org/2000/svg">
<path d="M9.50329 9.23549C9.404 9.23736 9.30641 9.26157 9.21772 9.30627C9.12906 9.35099 9.05157 9.41509 8.99104 9.49381C8.9305 9.57252 8.88843 9.66385 8.86797 9.76102C8.8475 9.85822 8.84917 9.95874 8.87282 10.0552L23.1662 67.9118C23.1941 68.0245 23.2512 68.1279 23.3316 68.2118C23.4121 68.2954 23.5132 68.3564 23.6248 68.3887C23.7364 68.4211 23.8543 68.4234 23.9672 68.3957C24.08 68.3678 24.1833 68.3109 24.2672 68.2305L67.2668 26.8692C67.3503 26.7886 67.4112 26.6875 67.4435 26.576C67.4757 26.4644 67.4778 26.3463 67.4499 26.2336C67.422 26.1208 67.365 26.0175 67.2844 25.9336C67.204 25.8499 67.103 25.7889 66.9914 25.7566L9.69723 9.26127C9.63428 9.24284 9.56886 9.23415 9.50329 9.23549ZM10.4314 10.8492L65.5235 26.7105L24.1763 66.4821L10.4314 10.8492Z" fill="#DDDDDD"/>
<path d="M38.1663 17.4845C38.0794 17.4827 37.9927 17.498 37.9116 17.5297C37.8305 17.5614 37.7564 17.6087 37.6936 17.6691L16.2037 38.3556C16.1202 38.4362 16.0595 38.5374 16.0274 38.649C15.9954 38.7606 15.9932 38.8785 16.0212 38.9912C16.0492 39.1039 16.1062 39.2073 16.1867 39.2907C16.2672 39.3744 16.3682 39.4356 16.4797 39.4677L45.1081 47.7188C45.2196 47.751 45.3375 47.7531 45.45 47.7249C45.5625 47.6971 45.6659 47.6401 45.7495 47.5597C45.833 47.4793 45.8941 47.3783 45.9263 47.267C45.9586 47.1556 45.9612 47.0375 45.9335 46.925L38.7952 17.9873C38.76 17.846 38.6796 17.7203 38.5659 17.6294C38.4523 17.5385 38.3119 17.4876 38.1663 17.4845ZM37.785 19.4181L44.3756 46.131L17.9475 38.5138L37.785 19.4181Z" fill="#DDDDDD"/>
<path d="M27.4888 27.7223C27.3896 27.7242 27.2919 27.7483 27.2033 27.7931C27.1147 27.8379 27.0371 27.9018 26.9767 27.9806C26.9162 28.0593 26.874 28.1508 26.8536 28.2478C26.833 28.345 26.8349 28.4456 26.8583 28.5419L30.4056 42.9157C30.4335 43.0284 30.4904 43.132 30.571 43.2159C30.6517 43.2998 30.7529 43.361 30.8645 43.3931C30.9763 43.4254 31.0944 43.4278 31.2071 43.3997C31.3201 43.3718 31.4235 43.3146 31.5071 43.2337L42.1843 32.943C42.2678 32.8624 42.3285 32.7611 42.3603 32.6496C42.3925 32.5378 42.3946 32.4199 42.3664 32.3072C42.3385 32.1947 42.2814 32.0913 42.2007 32.0076C42.1203 31.924 42.0191 31.863 41.9078 31.8309L27.6828 27.7481C27.6198 27.7296 27.5544 27.7209 27.4888 27.7223ZM28.4164 29.3341L40.441 32.7853L31.4146 41.4841L28.4164 29.3341Z" fill="#DDDDDD"/>
<path d="M23.966 13.3644C23.8788 13.3626 23.7921 13.3781 23.711 13.4098C23.6299 13.4416 23.5559 13.4891 23.4931 13.5495L12.8161 23.8399C12.7327 23.9205 12.6719 24.0218 12.6399 24.1333C12.6079 24.2449 12.6058 24.363 12.6338 24.4755C12.6618 24.5883 12.719 24.6916 12.7995 24.7751C12.8801 24.8587 12.9811 24.9197 13.0927 24.952L27.3152 29.0353C27.4266 29.0672 27.5447 29.0693 27.6572 29.0412C27.7697 29.0133 27.8728 28.9561 27.9565 28.8757C28.0399 28.7951 28.1009 28.694 28.1332 28.5827C28.1653 28.4714 28.1679 28.3535 28.1402 28.2408L24.5946 13.8677C24.5599 13.7263 24.4793 13.6002 24.3659 13.5091C24.2522 13.418 24.1116 13.3675 23.966 13.3644ZM23.5852 15.298L26.5816 27.4481L14.5599 23.9969L23.5852 15.298ZM52.4138 21.5581C52.3268 21.5565 52.2403 21.5719 52.1592 21.6037C52.0781 21.6355 52.0043 21.6829 51.9415 21.7433L41.2634 32.0329C41.1797 32.1136 41.1185 32.2148 41.0864 32.3266C41.0541 32.4382 41.052 32.5565 41.0801 32.6693C41.108 32.782 41.1654 32.8856 41.246 32.969C41.3269 33.0527 41.4281 33.1137 41.5399 33.1458L55.763 37.2286C55.8745 37.2604 55.9924 37.2623 56.1049 37.2344C56.2174 37.2063 56.3208 37.1491 56.4042 37.0687C56.4879 36.9883 56.5488 36.8873 56.5809 36.776C56.6133 36.6644 56.6156 36.5465 56.588 36.434L53.0431 22.0609C53.0081 21.9195 52.9275 21.7935 52.8138 21.7025C52.6999 21.6115 52.5595 21.5611 52.4138 21.5581ZM52.0329 23.4919L55.0294 35.6423L43.0078 32.1912L52.0329 23.4919ZM31.0219 42.1076C30.8595 42.1139 30.7052 42.1795 30.5883 42.2922L19.9112 52.5829C19.8278 52.6636 19.767 52.7648 19.735 52.8764C19.703 52.9879 19.7009 53.1061 19.7289 53.2188C19.757 53.3313 19.8141 53.4347 19.8946 53.5183C19.9752 53.602 20.0763 53.6629 20.1878 53.6951L34.4133 57.7779C34.5246 57.8095 34.6425 57.8116 34.7548 57.7835C34.8673 57.7554 34.9702 57.6984 35.0536 57.618C35.137 57.5376 35.198 57.4369 35.2303 57.3255C35.2627 57.2142 35.265 57.0965 35.2376 56.984L31.6898 42.6103C31.6533 42.4624 31.5668 42.3319 31.4452 42.2402C31.3235 42.1486 31.174 42.1017 31.0219 42.1076ZM30.6809 44.0411L33.6797 56.1919L21.655 52.7407L30.6809 44.0411Z" fill="#DDDDDD"/>
</svg>
