<svg width="75" height="75" viewBox="0 0 75 75" fill="none" xmlns="http://www.w3.org/2000/svg">
<path d="M9.375 14.375C9.375 11.6136 11.6136 9.375 14.375 9.375H60.625C63.3864 9.375 65.625 11.6136 65.625 14.375V60.625C65.625 63.3864 63.3864 65.625 60.625 65.625H14.375C11.6136 65.625 9.375 63.3864 9.375 60.625V14.375ZM44.9584 54.5866C43.7726 55.274 43.3051 56.8023 44.2112 57.8307C45.9874 59.8468 48.7224 61.2188 52.5 61.2188C57.5 61.2188 61.25 58.625 61.25 53.8437C61.25 49.4375 58.7188 47.4687 54.2188 45.5312L52.9063 44.9688C50.625 44 49.6563 43.3437 49.6563 41.7812C49.6563 40.5 50.625 39.5 52.1875 39.5C52.8156 39.5 53.356 39.6151 53.8386 39.8681C55.0963 40.5277 56.6044 41.1101 57.7873 40.3244V40.3244C58.8564 39.6144 59.2269 38.1558 58.3396 37.2286C56.7605 35.5787 54.7375 34.9063 52.1875 34.9063C47.4688 34.9063 44.4375 37.9062 44.4375 41.875C44.4375 46.1875 46.9687 48.2187 50.7812 49.8437L52.0938 50.4062C54.5313 51.4687 55.9687 52.125 55.9687 53.9375C55.9687 55.4375 54.5625 56.5313 52.375 56.5313C50.8306 56.5313 49.674 56.0548 48.7534 55.2735C47.679 54.3617 46.1776 53.8799 44.9584 54.5866V54.5866ZM40.625 37.5C40.625 36.2056 39.5757 35.1562 38.2812 35.1562H27.3437C26.0493 35.1562 25 36.2056 25 37.5V37.5C25 38.7944 26.0493 39.8438 27.3438 39.8438V39.8438C28.6382 39.8438 29.6875 40.8931 29.6875 42.1875V59.7656C29.6875 61.2758 30.9117 62.5 32.4219 62.5V62.5C33.932 62.5 35.1562 61.2758 35.1562 59.7656V42.5781C35.1562 41.068 36.3805 39.8438 37.8906 39.8438H38.2813C39.5757 39.8438 40.625 38.7944 40.625 37.5V37.5Z" fill="#007ACC"/>
</svg>
