<svg width="75" height="75" viewBox="0 0 75 75" fill="none" xmlns="http://www.w3.org/2000/svg">
<path d="M37.5016 6C20.1309 6 6 20.1298 6 37.4987C6 54.8689 20.1316 69 37.501 69C54.8697 69 69 54.8689 69 37.4987C69.0007 20.1305 54.8704 6 37.5016 6ZM9.1789 37.4987C9.1789 33.3936 10.0594 29.4947 11.6312 25.9736L25.1415 62.988C15.6945 58.3966 9.1789 48.7089 9.1789 37.4987ZM37.5016 65.8219C34.7214 65.8219 32.0381 65.414 29.5007 64.6678L37.9979 39.9764L46.7051 63.8259C46.7614 63.9667 46.8302 64.095 46.9068 64.2161C43.9629 65.2517 40.7997 65.8219 37.5016 65.8219ZM41.4039 24.2205C43.1086 24.1308 44.6463 23.9508 44.6463 23.9508C46.1716 23.7701 45.9929 21.5281 44.465 21.6178C44.465 21.6178 39.878 21.9772 36.9157 21.9772C34.1335 21.9772 29.4555 21.6178 29.4555 21.6178C27.9289 21.5281 27.7509 23.8611 29.2768 23.9508C29.2768 23.9508 30.7222 24.1308 32.2469 24.2205L36.6591 36.3106L30.4611 54.8983L20.1493 24.2212C21.8565 24.1321 23.391 23.9515 23.391 23.9515C24.9163 23.7714 24.7363 21.5281 23.209 21.6197C23.209 21.6197 18.624 21.9791 15.6611 21.9791C15.1289 21.9791 14.5024 21.9654 13.8386 21.9451C18.9015 14.2553 27.6075 9.1788 37.5016 9.1788C44.8761 9.1788 51.5887 11.9976 56.6268 16.6132C56.5043 16.6067 56.3859 16.5903 56.2589 16.5903C53.478 16.5903 51.5036 19.0137 51.5036 21.6171C51.5036 23.9502 52.8489 25.9258 54.2845 28.2588C55.3627 30.1454 56.6196 32.5695 56.6196 36.0697C56.6196 38.4944 55.6887 41.3066 54.4639 45.2251L51.6391 54.6653L41.4039 24.2205ZM51.7393 61.9799L60.3903 36.9685C62.0079 32.9288 62.544 29.6983 62.544 26.8239C62.544 25.7824 62.4759 24.8142 62.3528 23.9115C64.5655 27.9459 65.8244 32.576 65.8231 37.5C65.8224 47.9476 60.1585 57.0703 51.7393 61.9799Z" fill="#21759A"/>
</svg>
