<svg width="79" height="75" viewBox="0 0 79 75" fill="none" xmlns="http://www.w3.org/2000/svg">
<circle cx="39" cy="38" r="31" fill="#FFEF83"/>
<path fill-rule="evenodd" clip-rule="evenodd" d="M38.4019 7.01817C38.3781 7.04293 37.8192 7.10183 37.1598 7.14906C35.1751 7.29139 32.4067 7.71521 31.9756 7.94278C31.8991 7.98323 31.7655 8.01627 31.6789 8.01627C31.5922 8.01627 31.4384 8.04852 31.3372 8.08794C31.236 8.12745 30.9368 8.21931 30.6724 8.29217C29.7748 8.53952 28.0208 9.1369 27.5472 9.35658C27.4591 9.39742 27.0444 9.57649 26.6257 9.75446C25.4364 10.2601 23.5672 11.2537 22.6035 11.8928C22.3525 12.0592 22.124 12.1954 22.0957 12.1954C22.0274 12.1954 19.9745 13.6989 19.4139 14.1595C18.1029 15.2364 16.307 17.0044 15.2416 18.2669C14.7067 18.9009 13.5884 20.3814 13.2838 20.8591C13.2397 20.9281 13.1103 21.1272 12.9961 21.3014C12.2321 22.4675 11.275 24.2004 10.7962 25.2847C10.282 26.449 10.2263 26.5793 10.1231 26.8617C10.0677 27.0135 9.98498 27.2264 9.93947 27.3348C9.73008 27.8335 9.3134 29.1369 9.08246 30.0157C9.04255 30.1675 8.9722 30.4337 8.92612 30.6071C8.77756 31.1662 8.61264 31.9336 8.51937 32.4996C8.46937 32.8031 8.41031 33.1402 8.3882 33.2486C8.20157 34.1621 7.99435 36.7512 8.00012 38.098C8.00813 39.9844 8.26319 42.4136 8.63765 44.1695C8.71161 44.5165 8.80192 44.9423 8.8383 45.1158C8.87476 45.2892 8.94327 45.5643 8.99071 45.7268C9.03806 45.8895 9.1105 46.1378 9.15153 46.2788C9.19264 46.4198 9.24969 46.6238 9.2783 46.7322C9.34986 47.0036 9.72311 48.1556 9.80204 48.3486C9.83746 48.4354 9.98057 48.808 10.12 49.1766C10.5838 50.4027 11.5932 52.473 12.279 53.6043C12.9504 54.7119 12.9087 54.6466 13.4004 55.3616C15.4832 58.3906 18.3438 61.2516 21.4572 63.42C23.3535 64.7407 25.9532 66.0992 28.2361 66.9624C29.5037 67.4417 30.5908 67.7801 31.7942 68.0702C32.0587 68.1339 32.4012 68.2169 32.5555 68.2545C33.1097 68.3899 33.6518 68.4891 34.5187 68.6138C35.0035 68.6836 35.6165 68.7723 35.8809 68.8109C38.6396 69.2144 43.8363 68.9445 46.4183 68.2636C46.5725 68.2229 46.879 68.1479 47.0994 68.0968C47.5679 67.9882 47.736 67.9426 48.702 67.6625C49.0987 67.5474 49.4953 67.4239 49.5835 67.388C49.6716 67.3521 49.9781 67.2453 50.2646 67.1508C50.5511 67.0562 50.9117 66.9261 51.0659 66.8616C51.2202 66.7971 51.4185 66.7161 51.5066 66.6815C52.5262 66.2822 54.5941 65.2554 55.7482 64.5755C56.4418 64.1668 58.0832 63.0628 58.6768 62.6058C60.8724 60.9152 62.7548 59.0629 64.4729 56.9024C64.9373 56.3183 66.0592 54.7031 66.4745 54.0206C67.1654 52.885 68.209 50.8501 68.6148 49.8468C68.6499 49.7601 68.7322 49.5649 68.7978 49.4131C68.8634 49.2614 68.9956 48.9065 69.0916 48.6246C69.1877 48.3427 69.2962 48.0411 69.3327 47.9544C69.3992 47.7962 69.7598 46.6287 69.8563 46.2591C69.8845 46.1507 69.9441 45.9378 69.9885 45.786C70.0329 45.6342 70.1006 45.3681 70.139 45.1946C70.1773 45.0211 70.2468 44.7195 70.2935 44.5244C70.5396 43.496 70.8146 41.4535 70.9486 39.6615C71.15 36.9663 70.7459 33.0505 69.9737 30.2129C69.9264 30.0394 69.8519 29.757 69.808 29.5852C69.6505 28.9686 68.8863 26.8145 68.576 26.1126C67.1589 22.9069 65.7619 20.6519 63.6178 18.1092C62.8436 17.1912 60.4563 14.8434 59.6459 14.2032C57.9366 12.8528 56.4754 11.8613 54.913 10.992C53.8109 10.3786 52.0187 9.5586 50.8255 9.1216C50.4509 8.9844 50.0723 8.8416 49.9841 8.80423C49.6845 8.6772 48.8643 8.41927 48.2212 8.2499C47.8687 8.15702 47.454 8.04631 47.2997 8.00397C45.9263 7.62674 44.0281 7.31686 42.0511 7.14725C40.8848 7.04719 38.4566 6.96132 38.4019 7.01817ZM37.5847 9.36675C35.6163 9.50577 32.9719 9.9534 31.5538 10.3877C30.027 10.8552 29.574 11.0076 28.732 11.3366C21.304 14.239 15.3205 20.1269 12.371 27.4361C12.0394 28.2578 11.8247 28.8764 11.4076 30.2129C11.2962 30.5699 11.0233 31.7151 10.8908 32.3813C10.5788 33.9501 10.459 34.879 10.3499 36.5716C10.1457 39.7398 10.6116 43.3254 11.6548 46.6139C13.6214 52.8136 17.7473 58.2478 23.2201 61.8462C24.4856 62.6783 24.8313 62.8812 26.0011 63.4785C26.9647 63.9706 27.7992 64.347 28.9495 64.8087C29.0597 64.8529 29.222 64.9191 29.3101 64.9559C29.5355 65.05 30.9439 65.5085 31.2333 65.582C31.3655 65.6157 31.827 65.7341 32.2589 65.8454C35.0072 66.553 38.2409 66.8631 41.0754 66.6905C43.2511 66.5581 45.2482 66.2558 46.8991 65.809C47.2296 65.7196 47.6263 65.6146 47.7805 65.5759C48.7709 65.327 50.869 64.5184 52.2034 63.8713C52.6827 63.6388 53.0896 63.4486 53.1075 63.4486C53.1614 63.4486 54.8283 62.4776 55.4732 62.0706C58.5699 60.1161 61.9498 56.7899 63.9284 53.75C65.2968 51.6474 66.3356 49.5492 67.1294 47.2842C67.289 46.8288 67.4518 46.332 67.4912 46.1802C67.5305 46.0285 67.6374 45.6381 67.7287 45.3129C68.1483 43.8169 68.401 42.309 68.5744 40.2664C68.8414 37.1197 68.5672 33.9588 67.7604 30.8831C67.6523 30.4711 67.5314 30.0098 67.4917 29.858C67.452 29.7063 67.289 29.2095 67.1295 28.7541C65.6763 24.6073 63.2526 20.7905 60.1192 17.715C56.6594 14.319 52.567 11.9187 47.8206 10.5014C44.5944 9.53809 40.9224 9.13099 37.5847 9.36675ZM28.8694 34.8116C28.8694 40.0206 28.8533 40.8367 28.7444 41.1512C28.5426 41.7341 28.1538 41.9471 27.5086 41.8285C26.9379 41.7236 26.6365 41.3735 26.5324 40.694C26.4864 40.3937 26.4215 40.0949 26.3883 40.0298C26.3367 39.9288 25.9278 39.9086 23.5805 39.8908L20.8331 39.87L20.8798 40.6793C20.9378 41.684 21.0804 42.338 21.4127 43.1224C22.1757 44.9239 23.5628 46.0781 25.6641 46.6602C26.2811 46.8311 26.5001 46.8489 27.988 46.8497C29.4575 46.8504 29.6965 46.8317 30.2556 46.6723C31.7587 46.2436 32.8629 45.4433 33.5864 44.2582C33.9288 43.6974 34.2906 42.6684 34.3947 41.9594C34.4435 41.6275 34.4761 38.9193 34.477 35.1214L34.4786 28.833H31.674H28.8694V34.8116ZM35.815 28.8847C35.7852 28.9141 35.7607 32.9374 35.7607 37.8255C35.7607 45.2502 35.7788 46.7276 35.8704 46.8025C35.9486 46.8663 36.7581 46.886 38.6951 46.8712L41.41 46.8505L41.4501 42.6188C41.4721 40.2913 41.5143 38.3633 41.5437 38.3344C41.5731 38.3055 41.7466 38.7549 41.9292 39.3332C42.1117 39.9115 42.2913 40.4734 42.3282 40.5818C42.365 40.6902 42.4525 40.9741 42.5225 41.2126C42.5925 41.4511 42.8147 42.1785 43.0163 42.8291C43.2179 43.4796 43.5661 44.615 43.79 45.3523C44.014 46.0896 44.2531 46.7372 44.3214 46.7913C44.4143 46.8651 45.0264 46.8899 46.7513 46.8899C48.8658 46.8899 49.0631 46.8785 49.1303 46.7519C49.1706 46.6761 49.337 46.1881 49.4999 45.6677C50.0273 43.9832 50.3568 42.9132 50.4228 42.6714C50.4582 42.5413 50.6214 42.009 50.7855 41.4886C51.1395 40.3654 51.3259 39.7589 51.6052 38.823C51.74 38.3714 51.8355 38.1648 51.8786 38.2316C51.9151 38.2883 51.9454 40.2379 51.9462 42.5644C51.9472 46.348 51.9607 46.7992 52.0741 46.842C52.1438 46.8684 53.4059 46.8899 54.8787 46.8899H57.5566V37.8606V28.8313L54.0972 28.8518L50.6378 28.8724L50.1783 30.134C49.9256 30.8279 49.4247 32.2118 49.0651 33.2092C48.7056 34.2067 48.3442 35.2002 48.2619 35.4171C48.1797 35.6339 47.9802 36.1839 47.8186 36.6392C47.181 38.4359 46.814 39.3927 46.7466 39.4337C46.7142 39.4534 46.642 39.3383 46.5861 39.178C46.5301 39.0177 46.3579 38.5494 46.2034 38.1374C46.0489 37.7254 45.856 37.2109 45.7747 36.9941C45.6933 36.7772 45.4966 36.245 45.3375 35.8113C45.1785 35.3776 44.9813 34.8454 44.8994 34.6285C44.7665 34.2767 44.4426 33.4107 44.0146 32.263C43.9338 32.0462 43.7716 31.6026 43.6541 31.2774C43.5367 30.9521 43.4098 30.615 43.3723 30.5283C43.3347 30.4415 43.181 30.0335 43.0307 29.6215L42.7575 28.8724L39.3134 28.8519C37.4191 28.8405 35.8449 28.8554 35.815 28.8847Z" fill="#2707E0"/>
</svg>
