<svg width="62" height="75" viewBox="0 0 62 75" fill="none" xmlns="http://www.w3.org/2000/svg">
<g clip-path="url(#clip0_323_26436)">
<path d="M61.4609 64.2923H11.0159C4.97844 64.2923 0.0389404 59.3528 0.0389404 53.3168V22.5458C0.0389404 16.5083 4.97844 11.5703 11.0144 11.5703H50.4824C56.5199 11.5703 61.4579 16.5098 61.4579 22.5458V64.2938L61.4609 64.2923Z" fill="#A61E69"/>
<path d="M46.818 15.3624L40.2525 16.7694L29.2305 41.5494L22.1505 19.3749H11.6205L23.4105 49.6584C24.414 52.2372 24.414 55.0986 23.4105 57.6774C22.401 60.2649 30.18 45.0579 27.123 46.3164C27.123 46.3164 32.3535 60.9609 32.5815 60.4974C33.633 58.3599 34.632 55.9509 35.6085 53.2269L51.3585 10.7949C51.3585 10.7949 47.016 15.3654 46.821 15.3654L46.818 15.3624Z" fill="#A61E69"/>
<path d="M43.7985 0.921875L29.0145 41.9859L21.9345 19.8114H11.4045L23.1945 50.0949C24.198 52.6737 24.198 55.5351 23.1945 58.1139C21.8775 61.4934 19.6845 64.3839 14.3385 65.1024V74.0799C24.7455 74.0799 30.3705 67.6824 35.391 53.6619L55.065 0.921875H43.8H43.7985Z" fill="#6EAA27"/>
<path d="M14.3385 75H13.4175V64.2945L14.2155 64.1865C19.4415 63.4845 21.2535 60.552 22.335 57.7755C23.259 55.407 23.259 52.797 22.335 50.4255L10.0575 18.8895H22.608L29.067 39.12L43.152 0H56.391L36.2535 53.982C33.5715 61.4745 30.801 66.4965 27.537 69.777C23.9925 73.3395 19.7985 75 14.3385 75ZM15.2595 65.8875V73.14C19.7505 72.963 23.256 71.469 26.2305 68.478C29.295 65.397 31.9305 60.591 34.5225 53.3505L53.7375 1.842H44.4465L28.9635 44.8485L21.2625 20.73H12.753L24.054 49.758C25.1445 52.56 25.1445 55.6455 24.054 58.4445C22.9035 61.3935 20.8635 64.857 15.261 65.886L15.2595 65.8875Z" fill="white"/>
</g>
<defs>
<clipPath id="clip0_323_26436">
<rect width="61.5" height="75" fill="white"/>
</clipPath>
</defs>
</svg>
